<svg width="5610" height="3354" viewBox="0 0 5610 3354" fill="none" xmlns="http://www.w3.org/2000/svg">
<path d="M0 0.967773L0 3353.97H5610V3253.53V3228.38V3192.72V3147.27V3115.54V3104.55V3044.93V3032.78V3003.4V2984.97V2954.37V2916.32V2820.74V2798.81V2720.64V2700.82V2653.66V2566.03V2539.46V2514.79V2485.14V2443.56V2378.77V2365.55V2283.96V2255.91V2136.33V2006.93V1950.31V1808.9V1765.87V1712.89V1679.13V1645.38V1592.4V1549.37V1407.96V1351.34V1221.94V1102.35V1074.32V992.709V979.507V914.73V873.111V843.463V818.794V792.224V704.624V657.467V637.608V559.462V537.534V441.934V403.896V373.297V354.893V325.469V313.331V253.7V242.736V211.019V165.54V129.907V104.734V0.967773H0Z" fill="url(#paint0_radial_301_2)"/>
<path d="M113.999 303.967H872" stroke="white" stroke-opacity="0.5"/>
<path d="M150.696 242.78C142.776 242.78 136.355 249.358 136.355 257.472C136.355 265.585 142.776 272.163 150.696 272.163H223.421C231.341 272.163 237.762 265.585 237.762 257.472C237.762 249.358 231.341 242.78 223.421 242.78H150.696Z" fill="#E9E9E9" fill-opacity="0.5"/>
<path d="M164.681 257.471C164.681 265.585 158.261 272.162 150.341 272.162C142.421 272.162 136 265.585 136 257.471V127.659C136 119.546 142.421 112.968 150.341 112.968C158.261 112.968 164.681 119.546 164.681 127.659V257.471Z" fill="white" fill-opacity="0.5"/>
<path d="M265.511 142.351C273.431 142.351 279.852 135.773 279.852 127.66C279.852 119.546 273.431 112.968 265.511 112.968H192.786C184.866 112.968 178.445 119.546 178.445 127.66C178.445 135.773 184.866 142.351 192.786 142.351H265.511Z" fill="#E9E9E9" fill-opacity="0.5"/>
<path d="M251.525 127.659C251.525 119.546 257.946 112.968 265.866 112.968C273.786 112.968 280.207 119.546 280.207 127.659V257.471C280.207 265.585 273.786 272.162 265.866 272.162C257.946 272.162 251.525 265.585 251.525 257.471V127.659Z" fill="white" fill-opacity="0.5"/>
<path d="M220.911 218.082H220.911C223.611 216.851 224.723 213.661 223.394 210.957L203.138 169.716C201.81 167.012 198.545 165.817 195.845 167.048C193.144 168.279 192.033 171.469 193.361 174.173L213.617 215.414C214.945 218.118 218.211 219.313 220.911 218.082Z" fill="white" fill-opacity="0.25"/>
<path d="M232.559 197.804C235.383 197.804 237.673 195.458 237.673 192.564C237.673 189.671 235.383 187.325 232.559 187.325H184.181C181.356 187.325 179.067 189.671 179.067 192.564C179.067 195.458 181.356 197.804 184.181 197.804H232.559Z" fill="#E5E5E5" fill-opacity="0.5"/>
<path d="M195.845 218.082C193.144 216.851 192.033 213.661 193.361 210.957L213.617 169.716C214.945 167.012 218.211 165.817 220.911 167.048C223.611 168.279 224.723 171.469 223.394 174.173L203.138 215.414C201.81 218.118 198.544 219.313 195.845 218.082Z" fill="white" fill-opacity="0.5"/>
<path d="M330.418 162.717C341.51 162.717 350.502 153.808 350.502 142.817C350.502 131.827 341.51 122.918 330.418 122.918C319.326 122.918 310.333 131.827 310.333 142.817C310.333 153.808 319.326 162.717 330.418 162.717Z" fill="#C4C4C4" fill-opacity="0.5"/>
<path fill-rule="evenodd" clip-rule="evenodd" d="M337.113 124.05C329.312 126.782 323.723 134.153 323.723 142.817C323.723 151.482 329.312 158.853 337.113 161.585C335.019 162.318 332.765 162.717 330.418 162.717C319.326 162.717 310.333 153.807 310.333 142.817C310.333 131.827 319.326 122.918 330.418 122.918C332.765 122.918 335.019 123.317 337.113 124.05Z" fill="white" fill-opacity="0.5"/>
<path d="M330.418 222.414C319.325 222.414 310.333 231.323 310.333 242.313C310.333 253.304 319.325 262.213 330.418 262.213C341.51 262.213 350.502 253.304 350.502 242.313C350.502 231.323 341.51 222.414 330.418 222.414Z" fill="#C4C4C4" fill-opacity="0.5"/>
<path fill-rule="evenodd" clip-rule="evenodd" d="M323.723 261.081C331.524 258.349 337.113 250.978 337.113 242.314C337.113 233.65 331.524 226.278 323.723 223.547C325.817 222.813 328.071 222.414 330.418 222.414C341.51 222.414 350.502 231.324 350.502 242.314C350.502 253.304 341.51 262.213 330.418 262.213C328.071 262.213 325.817 261.814 323.723 261.081Z" fill="white" fill-opacity="0.5"/>
<path d="M518.742 152.951H439.623C431.57 152.951 425.042 159.419 425.042 167.398C425.042 175.377 431.57 181.845 439.623 181.845H518.742C526.795 181.845 533.324 175.377 533.324 167.398C533.324 159.419 526.795 152.951 518.742 152.951Z" fill="#E5E5E5" fill-opacity="0.5"/>
<path d="M523.62 127.196C527.307 119.793 536.447 116.557 544.035 119.968C551.623 123.379 554.785 132.147 551.098 139.55L491.583 259.054C487.896 266.458 478.756 269.694 471.168 266.283C463.58 262.871 460.418 254.104 464.105 246.701L523.62 127.196Z" fill="#C4C4C4" fill-opacity="0.5"/>
<path d="M431.226 127.176C427.547 119.769 418.416 116.536 410.831 119.954C403.247 123.373 400.081 132.15 403.76 139.557L463.147 259.121C466.827 266.528 475.958 269.761 483.542 266.342C491.127 262.924 494.293 254.147 490.613 246.74L431.226 127.176Z" fill="white" fill-opacity="0.5"/>
<path d="M653.725 259.455C657.289 266.917 666.283 270.104 673.815 266.573C681.346 263.042 684.563 254.131 680.999 246.669L623.984 127.283C620.421 119.821 611.426 116.634 603.894 120.165C596.363 123.696 593.146 132.607 596.71 140.07L653.725 259.455Z" fill="#E5E5E5" fill-opacity="0.5"/>
<path d="M567 259.455C563.436 266.918 554.441 270.105 546.909 266.573C539.377 263.042 536.16 254.13 539.724 246.668L596.743 127.277C600.307 119.814 609.302 116.627 616.834 120.158C624.366 123.689 627.583 132.601 624.019 140.064L567 259.455Z" fill="white" fill-opacity="0.5"/>
<path d="M784.15 258.651C787.714 266.113 796.708 269.3 804.24 265.769C811.771 262.239 814.988 253.327 811.424 245.865L754.409 126.48C750.845 119.017 741.851 115.83 734.319 119.361C726.788 122.892 723.571 131.804 727.135 139.266L784.15 258.651Z" fill="white" fill-opacity="0.25"/>
<path d="M835.913 207.467C844.245 207.467 851 200.775 851 192.519C851 184.264 844.245 177.572 835.913 177.572H702.609C694.276 177.572 687.522 184.264 687.522 192.519C687.522 200.775 694.276 207.467 702.609 207.467H835.913Z" fill="#E5E5E5" fill-opacity="0.5"/>
<path d="M754.411 258.651C750.847 266.113 741.852 269.3 734.321 265.769C726.789 262.239 723.573 253.327 727.137 245.865L784.152 126.48C787.716 119.018 796.71 115.831 804.242 119.362C811.774 122.893 814.99 131.804 811.426 139.266L754.411 258.651Z" fill="white" fill-opacity="0.5"/>
<path d="M2941.61 2290.11C2974.31 2359.22 3056.84 2388.73 3125.95 2356.03C3195.05 2323.33 3224.57 2240.8 3191.87 2171.7L2668.72 1066.09C2636.03 996.981 2553.5 967.467 2484.39 1000.17C2415.28 1032.86 2385.77 1115.39 2418.47 1184.5L2941.61 2290.11Z" fill="url(#paint1_linear_301_2)" fill-opacity="0.7"/>
<path d="M3416.57 1816.11C3493.02 1816.11 3555 1754.13 3555 1677.68C3555 1601.23 3493.02 1539.26 3416.57 1539.26H2193.43C2116.98 1539.26 2055 1601.23 2055 1677.68C2055 1754.13 2116.98 1816.11 2193.43 1816.11H3416.57Z" fill="url(#paint2_linear_301_2)"/>
<path d="M2668.74 2290.11C2636.04 2359.22 2553.51 2388.73 2484.41 2356.03C2415.3 2323.33 2385.79 2240.8 2418.49 2171.7L2941.64 1066.09C2974.34 996.984 3056.87 967.471 3125.97 1000.17C3195.08 1032.87 3224.59 1115.4 3191.89 1184.5L2668.74 2290.11Z" fill="url(#paint3_linear_301_2)"/>
<defs>
<radialGradient id="paint0_radial_301_2" cx="0" cy="0" r="1" gradientUnits="userSpaceOnUse" gradientTransform="translate(5326.51 388.678) rotate(-106.384) scale(6315.24 5459.16)">
<stop stop-color="#5F5E63"/>
<stop offset="0.801983"/>
<stop offset="0.953125"/>
<stop offset="1"/>
</radialGradient>
<linearGradient id="paint1_linear_301_2" x1="3125.95" y1="2356.03" x2="2484.4" y2="1000.16" gradientUnits="userSpaceOnUse">
<stop stop-color="white" stop-opacity="0"/>
<stop offset="1" stop-color="white"/>
</linearGradient>
<linearGradient id="paint2_linear_301_2" x1="3555" y1="1677.68" x2="2055" y2="1677.68" gradientUnits="userSpaceOnUse">
<stop stop-color="#E5E5E5"/>
<stop offset="1" stop-color="#E5E5E5" stop-opacity="0"/>
</linearGradient>
<linearGradient id="paint3_linear_301_2" x1="2484.41" y1="2356.03" x2="3125.96" y2="1000.17" gradientUnits="userSpaceOnUse">
<stop stop-color="white"/>
<stop offset="1" stop-color="white" stop-opacity="0"/>
</linearGradient>
</defs>
</svg>
