<svg width="5610" height="3354" viewBox="0 0 5610 3354" fill="none" xmlns="http://www.w3.org/2000/svg">
<path d="M0 8.89478L0 3345.9H5610V3245.94V3220.91V3185.42V3140.19V3108.61V3097.67V3038.33V3026.24V2997V2978.66V2948.2V2910.34V2815.21V2793.39V2715.59V2695.86V2648.93V2561.72V2535.27V2510.72V2481.22V2439.83V2375.36V2362.19V2281V2253.08V2134.07V2005.28V1948.94V1808.2V1765.38V1712.65V1679.05V1645.46V1592.74V1549.91V1409.17V1352.83V1224.04V1105.02V1077.13V995.904V982.765V918.297V876.877V847.37V822.819V796.375V709.193V662.261V642.498V564.724V542.901V447.757V409.9V379.448V361.132V331.848V319.768V260.421V249.509V217.943V172.682V137.219V112.167V8.89478H0Z" fill="url(#paint0_radial_2_110)"/>
<path d="M2502.46 1438.9C2584.41 1502.45 2703.39 1487.84 2768.21 1406.26C2833.03 1324.69 2819.15 1207.04 2737.2 1143.48L1426.12 126.725C1344.17 63.1729 1225.19 77.7849 1160.37 159.362C1095.55 240.94 1109.43 358.59 1191.38 422.142L2502.46 1438.9Z" fill="white" fill-opacity="0.25"/>
<path d="M3108.07 1428.18C3026.12 1491.73 2907.14 1477.12 2842.32 1395.54C2777.5 1313.97 2791.38 1196.32 2873.33 1132.76L4184.41 116.005C4266.36 52.4532 4385.34 67.0652 4450.16 148.643C4514.98 230.22 4501.1 347.871 4419.15 411.423L3108.07 1428.18Z" fill="#E5E5E5" fill-opacity="0.5"/>
<path d="M3053.6 3157.37C3055.45 3260.75 2972.25 3346.65 2867.78 3349.24C2763.31 3351.83 2677.13 3270.13 2675.28 3166.75L2645.77 1512.82C2643.93 1409.45 2727.12 1323.54 2831.59 1320.95C2936.06 1318.36 3022.25 1400.06 3024.09 1503.44L3053.6 3157.37Z" fill="white" fill-opacity="0.5"/>
<path d="M113.999 310.448H872" stroke="white" stroke-opacity="0.5"/>
<path d="M150.696 249.553C142.776 249.553 136.355 256.099 136.355 264.174C136.355 272.25 142.776 278.796 150.696 278.796H223.421C231.341 278.796 237.762 272.25 237.762 264.174C237.762 256.099 231.341 249.553 223.421 249.553H150.696Z" fill="#E9E9E9" fill-opacity="0.5"/>
<path d="M164.681 264.175C164.681 272.25 158.261 278.796 150.341 278.796C142.421 278.796 136 272.25 136 264.175V134.982C136 126.907 142.421 120.361 150.341 120.361C158.261 120.361 164.681 126.907 164.681 134.982V264.175Z" fill="white" fill-opacity="0.5"/>
<path d="M265.511 149.604C273.431 149.604 279.852 143.058 279.852 134.983C279.852 126.908 273.431 120.361 265.511 120.361H192.786C184.866 120.361 178.445 126.908 178.445 134.983C178.445 143.058 184.866 149.604 192.786 149.604H265.511Z" fill="#E9E9E9" fill-opacity="0.5"/>
<path d="M251.525 134.982C251.525 126.907 257.946 120.361 265.866 120.361C273.786 120.361 280.207 126.907 280.207 134.982V264.175C280.207 272.25 273.786 278.796 265.866 278.796C257.946 278.796 251.525 272.25 251.525 264.175V134.982Z" fill="white" fill-opacity="0.5"/>
<path d="M220.911 224.974H220.911C223.611 223.749 224.723 220.574 223.394 217.883L203.138 176.839C201.81 174.148 198.545 172.959 195.845 174.183C193.144 175.408 192.033 178.583 193.361 181.275L213.617 222.319C214.945 225.01 218.211 226.199 220.911 224.974Z" fill="white" fill-opacity="0.25"/>
<path d="M232.559 204.793C235.383 204.793 237.673 202.458 237.673 199.578C237.673 196.699 235.383 194.364 232.559 194.364H184.181C181.356 194.364 179.067 196.699 179.067 199.578C179.067 202.458 181.356 204.793 184.181 204.793H232.559Z" fill="#E5E5E5" fill-opacity="0.5"/>
<path d="M195.845 224.974C193.144 223.749 192.033 220.574 193.361 217.883L213.617 176.839C214.945 174.148 218.211 172.959 220.911 174.183C223.611 175.408 224.723 178.583 223.394 181.275L203.138 222.319C201.81 225.01 198.544 226.199 195.845 224.974Z" fill="white" fill-opacity="0.5"/>
<path d="M330.418 169.873C341.51 169.873 350.502 161.006 350.502 150.068C350.502 139.13 341.51 130.264 330.418 130.264C319.326 130.264 310.333 139.13 310.333 150.068C310.333 161.006 319.326 169.873 330.418 169.873Z" fill="#C4C4C4" fill-opacity="0.5"/>
<path fill-rule="evenodd" clip-rule="evenodd" d="M337.113 131.391C329.312 134.109 323.723 141.445 323.723 150.068C323.723 158.691 329.312 166.027 337.113 168.746C335.019 169.475 332.765 169.873 330.418 169.873C319.326 169.873 310.333 161.006 310.333 150.068C310.333 139.131 319.326 130.264 330.418 130.264C332.765 130.264 335.019 130.661 337.113 131.391Z" fill="white" fill-opacity="0.5"/>
<path d="M330.418 229.284C319.325 229.284 310.333 238.151 310.333 249.089C310.333 260.027 319.325 268.894 330.418 268.894C341.51 268.894 350.502 260.027 350.502 249.089C350.502 238.151 341.51 229.284 330.418 229.284Z" fill="#C4C4C4" fill-opacity="0.5"/>
<path fill-rule="evenodd" clip-rule="evenodd" d="M323.723 267.767C331.524 265.049 337.113 257.713 337.113 249.09C337.113 240.467 331.524 233.131 323.723 230.412C325.817 229.682 328.071 229.285 330.418 229.285C341.51 229.285 350.502 238.152 350.502 249.09C350.502 260.027 341.51 268.894 330.418 268.894C328.071 268.894 325.817 268.497 323.723 267.767Z" fill="white" fill-opacity="0.5"/>
<path d="M518.742 160.153H439.623C431.57 160.153 425.042 166.591 425.042 174.531C425.042 182.472 431.57 188.909 439.623 188.909H518.742C526.795 188.909 533.324 182.472 533.324 174.531C533.324 166.591 526.795 160.153 518.742 160.153Z" fill="#E5E5E5" fill-opacity="0.5"/>
<path d="M523.62 134.522C527.307 127.154 536.447 123.933 544.035 127.328C551.623 130.723 554.785 139.449 551.098 146.817L491.583 265.751C487.896 273.12 478.756 276.34 471.168 272.945C463.58 269.55 460.418 260.825 464.105 253.457L523.62 134.522Z" fill="#C4C4C4" fill-opacity="0.5"/>
<path d="M431.226 134.502C427.547 127.13 418.416 123.912 410.831 127.315C403.247 130.717 400.081 139.452 403.76 146.824L463.147 265.817C466.827 273.189 475.958 276.407 483.542 273.005C491.127 269.602 494.293 260.868 490.613 253.496L431.226 134.502Z" fill="white" fill-opacity="0.5"/>
<path d="M653.725 266.148C657.289 273.575 666.283 276.747 673.815 273.233C681.346 269.719 684.563 260.85 680.999 253.423L623.984 134.607C620.42 127.181 611.426 124.009 603.894 127.523C596.363 131.037 593.146 139.906 596.71 147.333L653.725 266.148Z" fill="#E5E5E5" fill-opacity="0.5"/>
<path d="M567 266.149C563.436 273.576 554.441 276.747 546.909 273.233C539.377 269.719 536.16 260.849 539.724 253.423L596.743 134.601C600.307 127.174 609.302 124.002 616.834 127.516C624.366 131.03 627.583 139.9 624.019 147.327L567 266.149Z" fill="white" fill-opacity="0.5"/>
<path d="M784.15 265.349C787.713 272.775 796.708 275.947 804.24 272.433C811.771 268.919 814.988 260.05 811.424 252.623L754.409 133.807C750.845 126.381 741.851 123.209 734.319 126.723C726.788 130.237 723.571 139.106 727.135 146.533L784.15 265.349Z" fill="white" fill-opacity="0.25"/>
<path d="M835.913 214.41C844.245 214.41 851 207.749 851 199.533C851 191.317 844.245 184.657 835.913 184.657H702.609C694.276 184.657 687.522 191.317 687.522 199.533C687.522 207.749 694.276 214.41 702.609 214.41H835.913Z" fill="#E5E5E5" fill-opacity="0.5"/>
<path d="M754.411 265.349C750.847 272.775 741.853 275.947 734.321 272.433C726.789 268.919 723.573 260.05 727.137 252.623L784.152 133.808C787.716 126.381 796.711 123.21 804.242 126.724C811.774 130.238 814.99 139.107 811.427 146.533L754.411 265.349Z" fill="white" fill-opacity="0.5"/>
<defs>
<radialGradient id="paint0_radial_2_110" cx="0" cy="0" r="1" gradientUnits="userSpaceOnUse" gradientTransform="translate(5326.51 394.756) rotate(-106.458) scale(6287.51 5457.07)">
<stop stop-color="#5F5E63"/>
<stop offset="0.801983"/>
<stop offset="0.953125"/>
<stop offset="1"/>
</radialGradient>
</defs>
</svg>
