<svg width="5610" height="3353" viewBox="0 0 5610 3353" fill="none" xmlns="http://www.w3.org/2000/svg">
<path d="M0 -0.000244141L0 3353H5610V3252.56V3227.42V3191.76V3146.31V3114.57V3103.58V3043.96V3031.81V3002.43V2984V2953.4V2915.35V2819.77V2797.84V2719.67V2699.85V2652.69V2565.06V2538.49V2513.82V2484.17V2442.59V2377.81V2364.58V2283V2254.94V2135.36V2005.96V1949.34V1807.93V1764.91V1711.92V1678.17V1644.41V1591.43V1548.41V1406.99V1350.38V1220.97V1101.38V1073.36V991.741V978.539V913.762V872.143V842.495V817.827V791.256V703.656V656.499V636.64V558.494V536.566V440.966V402.928V372.329V353.925V324.501V312.363V252.732V241.768V210.051V164.572V128.939V103.767V-0.000244141H0Z" fill="url(#paint0_radial_310_155)"/>
<path d="M0 -0.000244141L0 3353H5610V3252.56V3227.42V3191.76V3146.31V3114.57V3103.58V3043.96V3031.81V3002.43V2984V2953.4V2915.35V2819.77V2797.84V2719.67V2699.85V2652.69V2565.06V2538.49V2513.82V2484.17V2442.59V2377.81V2364.58V2283V2254.94V2135.36V2005.96V1949.34V1807.93V1764.91V1711.92V1678.17V1644.41V1591.43V1548.41V1406.99V1350.38V1220.97V1101.38V1073.36V991.741V978.539V913.762V872.143V842.495V817.827V791.256V703.656V656.499V636.64V558.494V536.566V440.966V402.928V372.329V353.925V324.501V312.363V252.732V241.768V210.051V164.572V128.939V103.767V-0.000244141H0Z" fill="black" fill-opacity="0.56"/>
<path d="M1941.5 3043.19C1944.91 3049.98 1953.3 3052.98 1960.25 3049.88C1967.19 3046.79 1970.05 3038.77 1966.64 3031.97L1914.53 2928.18C1911.12 2921.38 1902.73 2918.39 1895.78 2921.48C1888.84 2924.58 1885.98 2932.6 1889.39 2939.39L1941.5 3043.19Z" fill="white"/>
<path d="M1914.53 3043.19C1911.12 3049.98 1902.73 3052.98 1895.78 3049.88C1888.84 3046.79 1885.98 3038.77 1889.39 3031.97L1941.5 2928.18C1944.91 2921.38 1953.3 2918.39 1960.24 2921.48C1967.19 2924.58 1970.05 2932.6 1966.64 2939.39L1914.53 3043.19Z" fill="white"/>
<path d="M1874.92 2999.95C1866.94 2999.91 1859.96 2993.44 1859.31 2985.49C1858.67 2977.54 1864.61 2971.13 1872.59 2971.17L1981.06 2971.68C1989.03 2971.71 1996.02 2978.19 1996.66 2986.13C1997.3 2994.08 1991.36 3000.49 1983.39 3000.46L1874.92 2999.95Z" fill="white"/>
<path d="M1666.51 2672.37C1669.92 2679.16 1678.32 2682.16 1685.26 2679.07C1692.2 2675.97 1695.07 2667.95 1691.66 2661.16L1639.55 2557.36C1636.13 2550.57 1627.74 2547.57 1620.8 2550.67C1613.85 2553.76 1610.99 2561.78 1614.4 2568.58L1666.51 2672.37Z" fill="white"/>
<path d="M1639.54 2672.37C1636.13 2679.16 1627.74 2682.16 1620.8 2679.07C1613.85 2675.97 1610.99 2667.95 1614.4 2661.16L1666.51 2557.36C1669.92 2550.57 1678.31 2547.57 1685.26 2550.67C1692.2 2553.76 1695.07 2561.78 1691.65 2568.58L1639.54 2672.37Z" fill="white"/>
<path d="M1599.93 2629.14C1591.96 2629.11 1584.97 2622.63 1584.33 2614.69C1583.69 2606.74 1589.63 2600.33 1597.6 2600.36L1706.08 2600.87C1714.05 2600.91 1721.03 2607.38 1721.68 2615.33C1722.32 2623.27 1716.38 2629.69 1708.4 2629.65L1599.93 2629.14Z" fill="white"/>
<path d="M2325.6 2345.18C2329.02 2351.98 2337.41 2354.97 2344.35 2351.88C2351.3 2348.78 2354.16 2340.76 2350.75 2333.97L2298.64 2230.17C2295.23 2223.38 2286.83 2220.38 2279.89 2223.48C2272.95 2226.57 2270.08 2234.59 2273.5 2241.39L2325.6 2345.18Z" fill="white"/>
<path d="M2298.64 2345.18C2295.23 2351.98 2286.83 2354.97 2279.89 2351.88C2272.95 2348.78 2270.08 2340.76 2273.49 2333.97L2325.6 2230.17C2329.01 2223.38 2337.41 2220.38 2344.35 2223.48C2351.3 2226.57 2354.16 2234.59 2350.75 2241.39L2298.64 2345.18Z" fill="white"/>
<path d="M2259.02 2301.96C2251.05 2301.92 2244.07 2295.45 2243.42 2287.5C2242.78 2279.55 2248.72 2273.14 2256.7 2273.17L2365.17 2273.68C2373.14 2273.72 2380.13 2280.19 2380.77 2288.14C2381.41 2296.09 2375.47 2302.5 2367.5 2302.46L2259.02 2301.96Z" fill="white"/>
<path d="M2395.44 2794.52C2398.85 2801.32 2407.25 2804.31 2414.19 2801.22C2421.13 2798.12 2424 2790.1 2420.59 2783.31L2368.48 2679.51C2365.07 2672.72 2356.67 2669.72 2349.73 2672.82C2342.78 2675.91 2339.92 2683.93 2343.33 2690.73L2395.44 2794.52Z" fill="white"/>
<path d="M2368.48 2794.52C2365.06 2801.32 2356.67 2804.31 2349.73 2801.22C2342.78 2798.12 2339.92 2790.1 2343.33 2783.31L2395.44 2679.51C2398.85 2672.72 2407.25 2669.72 2414.19 2672.82C2421.13 2675.91 2424 2683.93 2420.59 2690.73L2368.48 2794.52Z" fill="white"/>
<path d="M2328.86 2751.3C2320.89 2751.26 2313.9 2744.79 2313.26 2736.84C2312.62 2728.89 2318.56 2722.48 2326.53 2722.51L2435 2723.02C2442.98 2723.06 2449.96 2729.53 2450.61 2737.48C2451.25 2745.43 2445.31 2751.84 2437.33 2751.8L2328.86 2751.3Z" fill="white"/>
<path d="M2857.36 763.249C2860.77 770.044 2869.16 773.041 2876.1 769.945C2883.05 766.848 2885.91 758.83 2882.5 752.035L2830.39 648.24C2826.98 641.446 2818.59 638.448 2811.64 641.544C2804.7 644.641 2801.84 652.659 2805.25 659.454L2857.36 763.249Z" fill="white"/>
<path d="M2830.38 763.249C2826.97 770.044 2818.58 773.041 2811.63 769.945C2804.69 766.848 2801.83 758.83 2805.24 752.035L2857.35 648.24C2860.76 641.446 2869.15 638.448 2876.09 641.544C2883.04 644.641 2885.9 652.659 2882.49 659.454L2830.38 763.249Z" fill="white"/>
<path d="M2790.77 720.023C2782.79 719.986 2775.81 713.513 2775.16 705.565C2774.52 697.618 2780.46 691.205 2788.44 691.242L2896.91 691.749C2904.88 691.786 2911.87 698.259 2912.51 706.206C2913.15 714.154 2907.21 720.567 2899.24 720.53L2790.77 720.023Z" fill="white"/>
<path d="M3843.81 968.289C3847.22 975.084 3855.62 978.081 3862.56 974.985C3869.5 971.888 3872.37 963.87 3868.96 957.075L3816.85 853.28C3813.44 846.486 3805.04 843.488 3798.1 846.584C3791.16 849.681 3788.29 857.699 3791.7 864.494L3843.81 968.289Z" fill="white"/>
<path d="M3816.84 968.289C3813.43 975.084 3805.03 978.081 3798.09 974.985C3791.15 971.888 3788.28 963.87 3791.69 957.075L3843.8 853.28C3847.21 846.486 3855.61 843.488 3862.55 846.584C3869.5 849.681 3872.36 857.699 3868.95 864.494L3816.84 968.289Z" fill="white"/>
<path d="M3777.22 925.062C3769.25 925.025 3762.26 918.552 3761.62 910.604C3760.98 902.657 3766.92 896.244 3774.89 896.281L3883.37 896.788C3891.34 896.825 3898.33 903.298 3898.97 911.246C3899.61 919.193 3893.67 925.606 3885.7 925.569L3777.22 925.062Z" fill="white"/>
<path d="M4424.36 801.536C4427.77 808.331 4436.16 811.328 4443.11 808.232C4450.05 805.135 4452.91 797.117 4449.5 790.322L4397.39 686.527C4393.98 679.733 4385.59 676.735 4378.64 679.832C4371.7 682.928 4368.84 690.946 4372.25 697.741L4424.36 801.536Z" fill="white"/>
<path d="M4397.38 801.536C4393.97 808.331 4385.58 811.328 4378.63 808.232C4371.69 805.135 4368.83 797.117 4372.24 790.322L4424.35 686.527C4427.76 679.733 4436.15 676.735 4443.1 679.832C4450.04 682.928 4452.9 690.946 4449.49 697.741L4397.38 801.536Z" fill="white"/>
<path d="M4357.77 758.31C4349.79 758.273 4342.81 751.8 4342.16 743.852C4341.52 735.905 4347.46 729.492 4355.44 729.529L4463.91 730.036C4471.88 730.073 4478.87 736.546 4479.51 744.494C4480.15 752.441 4474.21 758.854 4466.24 758.817L4357.77 758.31Z" fill="white"/>
<path d="M5374.36 731.312C5377.77 738.106 5386.16 741.104 5393.1 738.007C5400.05 734.911 5402.91 726.892 5399.5 720.098L5347.39 616.303C5343.98 609.508 5335.59 606.51 5328.64 609.607C5321.7 612.703 5318.84 620.722 5322.25 627.516L5374.36 731.312Z" fill="white"/>
<path d="M5347.38 731.312C5343.97 738.106 5335.58 741.104 5328.63 738.007C5321.69 734.911 5318.83 726.892 5322.24 720.098L5374.35 616.303C5377.76 609.508 5386.15 606.51 5393.09 609.607C5400.04 612.703 5402.9 620.722 5399.49 627.516L5347.38 731.312Z" fill="white"/>
<path d="M5307.77 688.086C5299.79 688.048 5292.81 681.575 5292.16 673.628C5291.52 665.68 5297.46 659.267 5305.44 659.305L5413.91 659.811C5421.88 659.848 5428.87 666.321 5429.51 674.269C5430.15 682.217 5424.21 688.629 5416.24 688.592L5307.77 688.086Z" fill="white"/>
<path d="M3197.81 1134.07C3201.22 1140.86 3209.61 1143.86 3216.56 1140.76C3223.5 1137.66 3226.36 1129.65 3222.95 1122.85L3170.84 1019.06C3167.43 1012.26 3159.04 1009.26 3152.09 1012.36C3145.15 1015.46 3142.29 1023.48 3145.7 1030.27L3197.81 1134.07Z" fill="white"/>
<path d="M3170.83 1134.07C3167.42 1140.86 3159.03 1143.86 3152.08 1140.76C3145.14 1137.66 3142.28 1129.65 3145.69 1122.85L3197.8 1019.06C3201.21 1012.26 3209.6 1009.26 3216.55 1012.36C3223.49 1015.46 3226.35 1023.48 3222.94 1030.27L3170.83 1134.07Z" fill="white"/>
<path d="M3131.22 1090.84C3123.24 1090.8 3116.26 1084.33 3115.62 1076.38C3114.97 1068.43 3120.92 1062.02 3128.89 1062.06L3237.36 1062.56C3245.33 1062.6 3252.32 1069.07 3252.96 1077.02C3253.61 1084.97 3247.66 1091.38 3239.69 1091.34L3131.22 1090.84Z" fill="white"/>
<path d="M3568.82 523.312C3572.23 530.106 3580.63 533.104 3587.57 530.007C3594.51 526.911 3597.38 518.892 3593.97 512.098L3541.86 408.303C3538.44 401.508 3530.05 398.51 3523.11 401.607C3516.16 404.703 3513.3 412.722 3516.71 419.516L3568.82 523.312Z" fill="white"/>
<path d="M3541.85 523.312C3538.43 530.106 3530.04 533.104 3523.1 530.007C3516.15 526.911 3513.29 518.892 3516.7 512.098L3568.81 408.303C3572.22 401.508 3580.62 398.51 3587.56 401.607C3594.5 404.703 3597.37 412.722 3593.96 419.516L3541.85 523.312Z" fill="white"/>
<path d="M3502.23 480.086C3494.26 480.048 3487.27 473.575 3486.63 465.628C3485.99 457.68 3491.93 451.267 3499.9 451.305L3608.37 451.811C3616.35 451.848 3623.33 458.321 3623.98 466.269C3624.62 474.217 3618.68 480.629 3610.7 480.592L3502.23 480.086Z" fill="white"/>
<path d="M4935.05 618.312C4938.46 625.106 4946.85 628.104 4953.8 625.007C4960.74 621.911 4963.6 613.892 4960.19 607.098L4908.08 503.303C4904.67 496.508 4896.28 493.51 4889.33 496.607C4882.39 499.703 4879.53 507.722 4882.94 514.516L4935.05 618.312Z" fill="white"/>
<path d="M4908.07 618.312C4904.66 625.106 4896.27 628.104 4889.33 625.007C4882.38 621.911 4879.52 613.892 4882.93 607.098L4935.04 503.303C4938.45 496.508 4946.84 493.51 4953.79 496.607C4960.73 499.703 4963.59 507.722 4960.18 514.516L4908.07 618.312Z" fill="white"/>
<path d="M4868.46 575.086C4860.48 575.048 4853.5 568.575 4852.86 560.628C4852.21 552.68 4858.16 546.267 4866.13 546.305L4974.6 546.811C4982.58 546.848 4989.56 553.321 4990.2 561.269C4990.85 569.217 4984.9 575.629 4976.93 575.592L4868.46 575.086Z" fill="white"/>
<path d="M4544.43 1862.65C4546.24 1866.26 4550.7 1867.85 4554.39 1866.21C4558.08 1864.56 4559.6 1860.3 4557.79 1856.69L4530.11 1801.54C4528.29 1797.93 4523.83 1796.34 4520.15 1797.99C4516.46 1799.63 4514.93 1803.89 4516.75 1807.5L4544.43 1862.65Z" fill="white"/>
<path d="M4530.12 1862.65C4528.31 1866.26 4523.85 1867.85 4520.16 1866.21C4516.47 1864.56 4514.95 1860.3 4516.76 1856.69L4544.45 1801.54C4546.26 1797.93 4550.72 1796.34 4554.41 1797.99C4558.09 1799.63 4559.62 1803.89 4557.8 1807.5L4530.12 1862.65Z" fill="white"/>
<path d="M4509.06 1839.68C4504.82 1839.66 4501.11 1836.22 4500.77 1832C4500.43 1827.78 4503.59 1824.37 4507.82 1824.39L4565.45 1824.66C4569.68 1824.68 4573.39 1828.12 4573.73 1832.34C4574.08 1836.56 4570.92 1839.97 4566.68 1839.95L4509.06 1839.68Z" fill="white"/>
<path d="M5168.61 1967.35C5170.42 1970.96 5174.88 1972.55 5178.57 1970.9C5182.26 1969.26 5183.78 1965 5181.96 1961.39L5154.28 1906.24C5152.47 1902.63 5148.01 1901.04 5144.32 1902.69C5140.63 1904.33 5139.11 1908.59 5140.92 1912.2L5168.61 1967.35Z" fill="white"/>
<path d="M5154.3 1967.35C5152.48 1970.96 5148.03 1972.55 5144.34 1970.9C5140.65 1969.26 5139.13 1965 5140.94 1961.39L5168.62 1906.24C5170.43 1902.63 5174.89 1901.04 5178.58 1902.69C5182.27 1904.33 5183.79 1908.59 5181.98 1912.2L5154.3 1967.35Z" fill="white"/>
<path d="M5133.23 1944.38C5129 1944.36 5125.29 1940.92 5124.95 1936.7C5124.6 1932.48 5127.76 1929.07 5132 1929.09L5189.62 1929.36C5193.86 1929.38 5197.57 1932.82 5197.91 1937.04C5198.25 1941.26 5195.09 1944.67 5190.86 1944.65L5133.23 1944.38Z" fill="white"/>
<path d="M2890.16 2578.1C2891.97 2581.71 2896.43 2583.31 2900.12 2581.66C2903.81 2580.02 2905.33 2575.76 2903.52 2572.15L2875.84 2517C2874.02 2513.39 2869.56 2511.8 2865.88 2513.44C2862.19 2515.09 2860.67 2519.35 2862.48 2522.96L2890.16 2578.1Z" fill="white"/>
<path d="M2875.84 2578.1C2874.02 2581.71 2869.57 2583.31 2865.88 2581.66C2862.19 2580.02 2860.67 2575.76 2862.48 2572.15L2890.16 2517C2891.97 2513.39 2896.43 2511.8 2900.12 2513.44C2903.81 2515.09 2905.33 2519.35 2903.52 2522.96L2875.84 2578.1Z" fill="white"/>
<path d="M2854.79 2555.14C2850.56 2555.12 2846.84 2551.68 2846.5 2547.45C2846.16 2543.23 2849.32 2539.82 2853.56 2539.84L2911.18 2540.11C2915.42 2540.13 2919.13 2543.57 2919.47 2547.79C2919.81 2552.02 2916.65 2555.42 2912.42 2555.4L2854.79 2555.14Z" fill="white"/>
<path d="M4348.02 2325.08C4349.84 2328.69 4354.29 2330.28 4357.98 2328.63C4361.67 2326.99 4363.19 2322.73 4361.38 2319.12L4333.7 2263.97C4331.89 2260.36 4327.43 2258.77 4323.74 2260.42C4320.05 2262.06 4318.53 2266.32 4320.34 2269.93L4348.02 2325.08Z" fill="white"/>
<path d="M4333.68 2325.08C4331.87 2328.69 4327.41 2330.28 4323.72 2328.63C4320.04 2326.99 4318.51 2322.73 4320.33 2319.12L4348.01 2263.97C4349.82 2260.36 4354.28 2258.77 4357.97 2260.42C4361.66 2262.06 4363.18 2266.32 4361.37 2269.93L4333.68 2325.08Z" fill="white"/>
<path d="M4312.65 2302.11C4308.42 2302.09 4304.7 2298.65 4304.36 2294.43C4304.02 2290.2 4307.18 2286.8 4311.41 2286.82L4369.04 2287.09C4373.28 2287.11 4376.99 2290.54 4377.33 2294.77C4377.67 2298.99 4374.51 2302.4 4370.28 2302.38L4312.65 2302.11Z" fill="white"/>
<path d="M3944.47 1520.03C3946.28 1523.64 3950.74 1525.23 3954.43 1523.58C3958.12 1521.94 3959.64 1517.68 3957.83 1514.07L3930.14 1458.92C3928.33 1455.31 3923.87 1453.72 3920.18 1455.36C3916.5 1457.01 3914.97 1461.27 3916.79 1464.88L3944.47 1520.03Z" fill="white"/>
<path d="M3930.13 1520.03C3928.32 1523.64 3923.86 1525.23 3920.17 1523.58C3916.48 1521.94 3914.96 1517.68 3916.77 1514.07L3944.46 1458.92C3946.27 1455.31 3950.73 1453.72 3954.42 1455.36C3958.11 1457.01 3959.63 1461.27 3957.81 1464.88L3930.13 1520.03Z" fill="white"/>
<path d="M3909.1 1497.06C3904.86 1497.04 3901.15 1493.6 3900.81 1489.38C3900.47 1485.16 3903.63 1481.75 3907.86 1481.77L3965.49 1482.04C3969.72 1482.06 3973.43 1485.5 3973.77 1489.72C3974.12 1493.94 3970.96 1497.35 3966.72 1497.33L3909.1 1497.06Z" fill="white"/>
<path d="M5130.33 1051.42C5132.14 1055.03 5136.6 1056.62 5140.29 1054.98C5143.98 1053.33 5145.5 1049.07 5143.69 1045.46L5116.01 990.316C5114.19 986.706 5109.74 985.114 5106.05 986.759C5102.36 988.404 5100.84 992.664 5102.65 996.274L5130.33 1051.42Z" fill="white"/>
<path d="M5115.99 1051.42C5114.18 1055.03 5109.72 1056.62 5106.03 1054.98C5102.34 1053.33 5100.82 1049.07 5102.64 1045.46L5130.32 990.316C5132.13 986.706 5136.59 985.114 5140.28 986.759C5143.97 988.404 5145.49 992.664 5143.68 996.274L5115.99 1051.42Z" fill="white"/>
<path d="M5094.96 1028.45C5090.72 1028.43 5087.01 1025 5086.67 1020.77C5086.33 1016.55 5089.49 1013.14 5093.72 1013.16L5151.35 1013.43C5155.58 1013.45 5159.3 1016.89 5159.64 1021.11C5159.98 1025.34 5156.82 1028.74 5152.58 1028.72L5094.96 1028.45Z" fill="white"/>
<path d="M4933.9 1513.85C4935.71 1517.46 4940.17 1519.05 4943.86 1517.41C4947.55 1515.76 4949.07 1511.5 4947.25 1507.89L4919.57 1452.75C4917.76 1449.14 4913.3 1447.54 4909.61 1449.19C4905.92 1450.83 4904.4 1455.09 4906.21 1458.7L4933.9 1513.85Z" fill="white"/>
<path d="M4919.59 1513.85C4917.77 1517.46 4913.32 1519.05 4909.63 1517.41C4905.94 1515.76 4904.42 1511.5 4906.23 1507.89L4933.91 1452.75C4935.72 1449.14 4940.18 1447.54 4943.87 1449.19C4947.56 1450.83 4949.08 1455.09 4947.27 1458.7L4919.59 1513.85Z" fill="white"/>
<path d="M4898.52 1490.88C4894.29 1490.86 4890.58 1487.42 4890.24 1483.2C4889.89 1478.98 4893.05 1475.57 4897.29 1475.59L4954.91 1475.86C4959.15 1475.88 4962.86 1479.32 4963.2 1483.54C4963.54 1487.76 4960.39 1491.17 4956.15 1491.15L4898.52 1490.88Z" fill="white"/>
<path d="M5308.29 2146.21C5310.1 2149.82 5314.56 2151.42 5318.25 2149.77C5321.93 2148.12 5323.46 2143.86 5321.64 2140.26L5293.96 2085.11C5292.15 2081.5 5287.69 2079.91 5284 2081.55C5280.31 2083.2 5278.79 2087.46 5280.6 2091.07L5308.29 2146.21Z" fill="white"/>
<path d="M5293.98 2146.21C5292.16 2149.82 5287.7 2151.42 5284.02 2149.77C5280.33 2148.12 5278.81 2143.86 5280.62 2140.26L5308.3 2085.11C5310.11 2081.5 5314.57 2079.91 5318.26 2081.55C5321.95 2083.2 5323.47 2087.46 5321.66 2091.07L5293.98 2146.21Z" fill="white"/>
<path d="M5272.91 2123.25C5268.68 2123.23 5264.97 2119.79 5264.62 2115.57C5264.28 2111.34 5267.44 2107.94 5271.68 2107.96L5329.3 2108.22C5333.54 2108.24 5337.25 2111.68 5337.59 2115.91C5337.93 2120.13 5334.77 2123.54 5330.54 2123.52L5272.91 2123.25Z" fill="white"/>
<path d="M1908.07 1169.01C1909.88 1172.62 1914.34 1174.21 1918.03 1172.56C1921.72 1170.92 1923.24 1166.66 1921.43 1163.05L1893.74 1107.9C1891.93 1104.29 1887.47 1102.7 1883.78 1104.35C1880.1 1105.99 1878.57 1110.25 1880.39 1113.86L1908.07 1169.01Z" fill="white"/>
<path d="M1893.74 1169.01C1891.93 1172.62 1887.47 1174.21 1883.78 1172.56C1880.09 1170.92 1878.57 1166.66 1880.38 1163.05L1908.07 1107.9C1909.88 1104.29 1914.34 1102.7 1918.03 1104.35C1921.72 1105.99 1923.24 1110.25 1921.43 1113.86L1893.74 1169.01Z" fill="white"/>
<path d="M1872.7 1146.04C1868.46 1146.02 1864.75 1142.58 1864.41 1138.36C1864.07 1134.14 1867.22 1130.73 1871.46 1130.75L1929.09 1131.02C1933.32 1131.04 1937.03 1134.48 1937.37 1138.7C1937.72 1142.92 1934.56 1146.33 1930.32 1146.31L1872.7 1146.04Z" fill="white"/>
<path d="M1388.97 361.61C1390.78 365.22 1395.24 366.813 1398.93 365.167C1402.62 363.522 1404.14 359.262 1402.33 355.653L1374.64 300.506C1372.83 296.897 1368.37 295.304 1364.68 296.949C1360.99 298.594 1359.47 302.854 1361.29 306.464L1388.97 361.61Z" fill="white"/>
<path d="M1374.65 361.61C1372.83 365.22 1368.37 366.813 1364.68 365.167C1361 363.522 1359.47 359.262 1361.29 355.653L1388.97 300.506C1390.78 296.897 1395.24 295.304 1398.93 296.949C1402.62 298.594 1404.14 302.854 1402.33 306.464L1374.65 361.61Z" fill="white"/>
<path d="M1353.6 338.644C1349.36 338.625 1345.65 335.185 1345.31 330.963C1344.97 326.74 1348.13 323.333 1352.36 323.353L1409.99 323.622C1414.22 323.642 1417.93 327.081 1418.28 331.304C1418.62 335.526 1415.46 338.933 1411.22 338.913L1353.6 338.644Z" fill="white"/>
<path d="M3059.65 227.723C3061.46 231.332 3065.92 232.925 3069.61 231.28C3073.3 229.634 3074.82 225.375 3073.01 221.765L3045.33 166.619C3043.51 163.009 3039.05 161.416 3035.37 163.061C3031.68 164.707 3030.16 168.967 3031.97 172.576L3059.65 227.723Z" fill="white"/>
<path d="M3045.31 227.723C3043.5 231.332 3039.04 232.925 3035.35 231.28C3031.66 229.634 3030.14 225.375 3031.95 221.765L3059.64 166.619C3061.45 163.009 3065.91 161.416 3069.6 163.061C3073.29 164.707 3074.81 168.967 3073 172.576L3045.31 227.723Z" fill="white"/>
<path d="M3024.28 204.756C3020.04 204.736 3016.33 201.297 3015.99 197.074C3015.65 192.852 3018.81 189.445 3023.04 189.465L3080.67 189.734C3084.9 189.753 3088.61 193.192 3088.96 197.415C3089.3 201.637 3086.14 205.044 3081.9 205.025L3024.28 204.756Z" fill="white"/>
<path d="M4220.98 361.61C4222.79 365.22 4227.25 366.813 4230.94 365.167C4234.63 363.522 4236.15 359.262 4234.33 355.653L4206.65 300.506C4204.84 296.897 4200.38 295.304 4196.69 296.949C4193 298.594 4191.48 302.854 4193.29 306.464L4220.98 361.61Z" fill="white"/>
<path d="M4206.64 361.61C4204.83 365.22 4200.37 366.813 4196.68 365.167C4192.99 363.522 4191.47 359.262 4193.28 355.653L4220.96 300.506C4222.77 296.897 4227.23 295.304 4230.92 296.949C4234.61 298.594 4236.13 302.854 4234.32 306.464L4206.64 361.61Z" fill="white"/>
<path d="M4185.6 338.644C4181.37 338.625 4177.66 335.185 4177.32 330.963C4176.97 326.74 4180.13 323.333 4184.37 323.353L4241.99 323.622C4246.23 323.642 4249.94 327.081 4250.28 331.304C4250.62 335.526 4247.46 338.933 4243.23 338.913L4185.6 338.644Z" fill="white"/>
<path d="M5344.46 317.951C5346.28 321.561 5350.74 323.153 5354.42 321.508C5358.11 319.863 5359.63 315.603 5357.82 311.993L5330.14 256.847C5328.33 253.237 5323.87 251.645 5320.18 253.29C5316.49 254.935 5314.97 259.195 5316.78 262.805L5344.46 317.951Z" fill="white"/>
<path d="M5330.13 317.951C5328.31 321.561 5323.85 323.153 5320.16 321.508C5316.48 319.863 5314.95 315.603 5316.77 311.993L5344.45 256.847C5346.26 253.237 5350.72 251.645 5354.41 253.29C5358.1 254.935 5359.62 259.195 5357.81 262.805L5330.13 317.951Z" fill="white"/>
<path d="M5309.09 294.984C5304.86 294.964 5301.14 291.525 5300.8 287.303C5300.46 283.08 5303.62 279.673 5307.86 279.693L5365.48 279.962C5369.72 279.982 5373.43 283.421 5373.77 287.643C5374.11 291.866 5370.95 295.273 5366.72 295.253L5309.09 294.984Z" fill="white"/>
<path d="M5466.71 3048.09C5468.52 3051.7 5472.98 3053.29 5476.67 3051.65C5480.36 3050 5481.88 3045.74 5480.07 3042.13L5452.38 2986.99C5450.57 2983.38 5446.11 2981.78 5442.42 2983.43C5438.73 2985.07 5437.21 2989.33 5439.03 2992.94L5466.71 3048.09Z" fill="white"/>
<path d="M5452.37 3048.09C5450.56 3051.7 5446.1 3053.29 5442.41 3051.65C5438.72 3050 5437.2 3045.74 5439.01 3042.13L5466.7 2986.99C5468.51 2983.38 5472.97 2981.78 5476.66 2983.43C5480.34 2985.07 5481.87 2989.33 5480.05 2992.94L5452.37 3048.09Z" fill="white"/>
<path d="M5431.34 3025.11C5427.1 3025.09 5423.39 3021.65 5423.05 3017.43C5422.71 3013.21 5425.86 3009.8 5430.1 3009.82L5487.72 3010.09C5491.96 3010.11 5495.67 3013.55 5496.01 3017.77C5496.36 3021.99 5493.2 3025.4 5488.96 3025.38L5431.34 3025.11Z" fill="white"/>
<path d="M4410.16 2739.56C4411.98 2743.17 4416.44 2744.76 4420.13 2743.12C4423.81 2741.47 4425.34 2737.21 4423.52 2733.6L4395.84 2678.46C4394.03 2674.85 4389.57 2673.26 4385.88 2674.9C4382.19 2676.55 4380.67 2680.81 4382.48 2684.42L4410.16 2739.56Z" fill="white"/>
<path d="M4395.83 2739.56C4394.01 2743.17 4389.55 2744.76 4385.87 2743.12C4382.18 2741.47 4380.66 2737.21 4382.47 2733.6L4410.15 2678.46C4411.96 2674.85 4416.42 2673.26 4420.11 2674.9C4423.8 2676.55 4425.32 2680.81 4423.51 2684.42L4395.83 2739.56Z" fill="white"/>
<path d="M4374.79 2716.6C4370.56 2716.58 4366.85 2713.14 4366.5 2708.92C4366.16 2704.69 4369.32 2701.29 4373.56 2701.31L4431.18 2701.57C4435.42 2701.59 4439.13 2705.03 4439.47 2709.26C4439.81 2713.48 4436.65 2716.89 4432.42 2716.87L4374.79 2716.6Z" fill="white"/>
<path d="M3734.91 3196.53C3736.72 3200.14 3741.18 3201.73 3744.87 3200.09C3748.56 3198.44 3750.08 3194.18 3748.27 3190.57L3720.58 3135.43C3718.77 3131.82 3714.31 3130.22 3710.62 3131.87C3706.93 3133.52 3705.41 3137.78 3707.22 3141.38L3734.91 3196.53Z" fill="white"/>
<path d="M3720.57 3196.53C3718.76 3200.14 3714.3 3201.73 3710.61 3200.09C3706.92 3198.44 3705.4 3194.18 3707.21 3190.57L3734.89 3135.43C3736.71 3131.82 3741.17 3130.22 3744.85 3131.87C3748.54 3133.52 3750.06 3137.78 3748.25 3141.38L3720.57 3196.53Z" fill="white"/>
<path d="M3699.54 3173.55C3695.3 3173.53 3691.59 3170.09 3691.25 3165.87C3690.91 3161.65 3694.06 3158.24 3698.3 3158.26L3755.92 3158.53C3760.16 3158.55 3763.87 3161.99 3764.21 3166.21C3764.55 3170.43 3761.4 3173.84 3757.16 3173.82L3699.54 3173.55Z" fill="white"/>
<path d="M2890.83 3254.74C2892.65 3258.35 2897.11 3259.94 2900.79 3258.3C2904.48 3256.65 2906 3252.39 2904.19 3248.78L2876.51 3193.64C2874.7 3190.03 2870.24 3188.44 2866.55 3190.08C2862.86 3191.73 2861.34 3195.99 2863.15 3199.6L2890.83 3254.74Z" fill="white"/>
<path d="M2876.51 3254.74C2874.7 3258.35 2870.24 3259.94 2866.55 3258.3C2862.86 3256.65 2861.34 3252.39 2863.15 3248.78L2890.83 3193.64C2892.65 3190.03 2897.11 3188.44 2900.79 3190.08C2904.48 3191.73 2906 3195.99 2904.19 3199.6L2876.51 3254.74Z" fill="white"/>
<path d="M2855.46 3231.76C2851.23 3231.74 2847.52 3228.3 2847.18 3224.08C2846.83 3219.86 2849.99 3216.45 2854.23 3216.47L2911.85 3216.74C2916.09 3216.76 2919.8 3220.2 2920.14 3224.42C2920.48 3228.64 2917.33 3232.05 2913.09 3232.03L2855.46 3231.76Z" fill="white"/>
<path d="M1307.62 1837C1309.43 1840.61 1313.89 1842.21 1317.58 1840.56C1321.26 1838.92 1322.79 1834.66 1320.97 1831.05L1293.29 1775.9C1291.48 1772.29 1287.02 1770.7 1283.33 1772.34C1279.64 1773.99 1278.12 1778.25 1279.93 1781.86L1307.62 1837Z" fill="white"/>
<path d="M1293.29 1837C1291.48 1840.61 1287.02 1842.21 1283.33 1840.56C1279.64 1838.92 1278.12 1834.66 1279.93 1831.05L1307.61 1775.9C1309.43 1772.29 1313.88 1770.7 1317.57 1772.34C1321.26 1773.99 1322.78 1778.25 1320.97 1781.86L1293.29 1837Z" fill="white"/>
<path d="M1272.24 1814.04C1268.01 1814.02 1264.3 1810.58 1263.95 1806.36C1263.61 1802.13 1266.77 1798.73 1271.01 1798.75L1328.63 1799.02C1332.87 1799.04 1336.58 1802.47 1336.92 1806.7C1337.26 1810.92 1334.1 1814.33 1329.87 1814.31L1272.24 1814.04Z" fill="white"/>
<path d="M2023.62 2026.19C2025.43 2029.8 2029.89 2031.39 2033.58 2029.75C2037.27 2028.1 2038.79 2023.84 2036.98 2020.23L2009.3 1965.09C2007.48 1961.48 2003.02 1959.89 1999.34 1961.53C1995.65 1963.18 1994.12 1967.44 1995.94 1971.05L2023.62 2026.19Z" fill="white"/>
<path d="M2009.29 2026.19C2007.48 2029.8 2003.02 2031.39 1999.33 2029.75C1995.64 2028.1 1994.12 2023.84 1995.94 2020.23L2023.62 1965.09C2025.43 1961.48 2029.89 1959.89 2033.58 1961.53C2037.27 1963.18 2038.79 1967.44 2036.98 1971.05L2009.29 2026.19Z" fill="white"/>
<path d="M1988.25 2003.23C1984.01 2003.21 1980.3 1999.77 1979.96 1995.54C1979.62 1991.32 1982.78 1987.91 1987.01 1987.93L2044.64 1988.2C2048.87 1988.22 2052.58 1991.66 2052.92 1995.88C2053.27 2000.11 2050.11 2003.51 2045.87 2003.49L1988.25 2003.23Z" fill="white"/>
<path d="M1879.09 1490.92C1880.9 1494.53 1885.36 1496.12 1889.05 1494.48C1892.74 1492.83 1894.26 1488.57 1892.45 1484.96L1864.77 1429.82C1862.95 1426.21 1858.5 1424.61 1854.81 1426.26C1851.12 1427.9 1849.6 1432.16 1851.41 1435.77L1879.09 1490.92Z" fill="white"/>
<path d="M1864.77 1490.92C1862.95 1494.53 1858.49 1496.12 1854.81 1494.48C1851.12 1492.83 1849.59 1488.57 1851.41 1484.96L1879.09 1429.82C1880.9 1426.21 1885.36 1424.61 1889.05 1426.26C1892.74 1427.9 1894.26 1432.16 1892.45 1435.77L1864.77 1490.92Z" fill="white"/>
<path d="M1843.72 1467.95C1839.48 1467.93 1835.77 1464.5 1835.43 1460.27C1835.09 1456.05 1838.25 1452.64 1842.48 1452.66L1900.11 1452.93C1904.34 1452.95 1908.06 1456.39 1908.4 1460.61C1908.74 1464.84 1905.58 1468.24 1901.34 1468.22L1843.72 1467.95Z" fill="white"/>
<path d="M2292.18 789.467C2293.99 793.076 2298.45 794.669 2302.14 793.024C2305.83 791.379 2307.35 787.119 2305.54 783.509L2277.85 728.363C2276.04 724.753 2271.58 723.16 2267.89 724.806C2264.2 726.451 2262.68 730.711 2264.49 734.321L2292.18 789.467Z" fill="white"/>
<path d="M2277.85 789.467C2276.04 793.076 2271.58 794.669 2267.89 793.024C2264.2 791.379 2262.68 787.119 2264.49 783.509L2292.18 728.363C2293.99 724.753 2298.45 723.16 2302.14 724.806C2305.82 726.451 2307.35 730.711 2305.53 734.321L2277.85 789.467Z" fill="white"/>
<path d="M2256.81 766.501C2252.57 766.481 2248.86 763.042 2248.52 758.819C2248.18 754.597 2251.33 751.19 2255.57 751.21L2313.19 751.479C2317.43 751.498 2321.14 754.938 2321.48 759.16C2321.82 763.383 2318.67 766.79 2314.43 766.77L2256.81 766.501Z" fill="white"/>
<path d="M3536.17 2621.73C3537.98 2625.34 3542.44 2626.93 3546.13 2625.28C3549.82 2623.64 3551.34 2619.38 3549.53 2615.77L3521.85 2560.62C3520.04 2557.01 3515.58 2555.42 3511.89 2557.07C3508.2 2558.71 3506.68 2562.97 3508.49 2566.58L3536.17 2621.73Z" fill="white"/>
<path d="M3521.83 2621.73C3520.02 2625.34 3515.56 2626.93 3511.87 2625.28C3508.18 2623.64 3506.66 2619.38 3508.48 2615.77L3536.16 2560.62C3537.97 2557.01 3542.43 2555.42 3546.12 2557.07C3549.81 2558.71 3551.33 2562.97 3549.52 2566.58L3521.83 2621.73Z" fill="white"/>
<path d="M3500.8 2598.76C3496.56 2598.74 3492.85 2595.3 3492.51 2591.08C3492.17 2586.86 3495.33 2583.45 3499.56 2583.47L3557.19 2583.74C3561.42 2583.76 3565.14 2587.2 3565.48 2591.42C3565.82 2595.64 3562.66 2599.05 3558.43 2599.03L3500.8 2598.76Z" fill="white"/>
<path d="M3658.39 2054.6C3660.2 2058.21 3664.66 2059.8 3668.35 2058.16C3672.04 2056.51 3673.56 2052.25 3671.75 2048.64L3644.06 1993.5C3642.25 1989.89 3637.79 1988.29 3634.1 1989.94C3630.41 1991.58 3628.89 1995.84 3630.7 1999.45L3658.39 2054.6Z" fill="white"/>
<path d="M3644.05 2054.6C3642.24 2058.21 3637.78 2059.8 3634.09 2058.16C3630.4 2056.51 3628.88 2052.25 3630.69 2048.64L3658.37 1993.5C3660.19 1989.89 3664.65 1988.29 3668.33 1989.94C3672.02 1991.58 3673.54 1995.84 3671.73 1999.45L3644.05 2054.6Z" fill="white"/>
<path d="M3623.02 2031.63C3618.78 2031.61 3615.07 2028.17 3614.73 2023.95C3614.39 2019.73 3617.54 2016.32 3621.78 2016.34L3679.4 2016.61C3683.64 2016.63 3687.35 2020.07 3687.69 2024.29C3688.03 2028.52 3684.88 2031.92 3680.64 2031.9L3623.02 2031.63Z" fill="white"/>
<path d="M3021.11 1875.73C3022.93 1879.34 3027.39 1880.94 3031.07 1879.29C3034.76 1877.65 3036.28 1873.39 3034.47 1869.78L3006.79 1814.63C3004.98 1811.02 3000.52 1809.43 2996.83 1811.07C2993.14 1812.72 2991.62 1816.98 2993.43 1820.59L3021.11 1875.73Z" fill="white"/>
<path d="M3006.78 1875.73C3004.96 1879.34 3000.5 1880.94 2996.82 1879.29C2993.13 1877.65 2991.61 1873.39 2993.42 1869.78L3021.1 1814.63C3022.91 1811.02 3027.37 1809.43 3031.06 1811.07C3034.75 1812.72 3036.27 1816.98 3034.46 1820.59L3006.78 1875.73Z" fill="white"/>
<path d="M2985.74 1852.77C2981.51 1852.75 2977.8 1849.31 2977.45 1845.09C2977.11 1840.86 2980.27 1837.46 2984.51 1837.48L3042.13 1837.75C3046.37 1837.77 3050.08 1841.21 3050.42 1845.43C3050.76 1849.65 3047.6 1853.06 3043.37 1853.04L2985.74 1852.77Z" fill="white"/>
<path d="M1125.34 2828.34C1128.75 2835.14 1137.14 2838.13 1144.08 2835.04C1151.03 2831.94 1153.89 2823.92 1150.48 2817.13L1098.37 2713.33C1094.96 2706.54 1086.57 2703.54 1079.62 2706.64C1072.68 2709.73 1069.81 2717.75 1073.23 2724.55L1125.34 2828.34Z" fill="white"/>
<path d="M1098.37 2828.34C1094.96 2835.14 1086.57 2838.13 1079.62 2835.04C1072.68 2831.94 1069.82 2823.92 1073.23 2817.13L1125.34 2713.33C1128.75 2706.54 1137.14 2703.54 1144.09 2706.64C1151.03 2709.73 1153.89 2717.75 1150.48 2724.55L1098.37 2828.34Z" fill="white"/>
<path d="M1058.76 2785.11C1050.78 2785.08 1043.8 2778.6 1043.16 2770.66C1042.51 2762.71 1048.46 2756.3 1056.43 2756.33L1164.9 2756.84C1172.87 2756.88 1179.86 2763.35 1180.5 2771.3C1181.15 2779.24 1175.2 2785.66 1167.23 2785.62L1058.76 2785.11Z" fill="white"/>
<path d="M403.509 3005.87C406.92 3012.67 415.315 3015.66 422.258 3012.57C429.202 3009.47 432.065 3001.45 428.654 2994.66L376.545 2890.86C373.133 2884.07 364.739 2881.07 357.796 2884.17C350.852 2887.26 347.989 2895.28 351.4 2902.08L403.509 3005.87Z" fill="white"/>
<path d="M376.546 3005.87C373.135 3012.67 364.741 3015.66 357.798 3012.57C350.854 3009.47 347.99 3001.45 351.402 2994.66L403.511 2890.86C406.922 2884.07 415.316 2881.07 422.26 2884.17C429.203 2887.26 432.067 2895.28 428.656 2902.08L376.546 3005.87Z" fill="white"/>
<path d="M336.931 2962.66C328.957 2962.63 321.972 2956.15 321.329 2948.21C320.686 2940.26 326.629 2933.85 334.602 2933.88L443.074 2934.39C451.048 2934.43 458.033 2940.9 458.676 2948.85C459.319 2956.8 453.376 2963.21 445.403 2963.17L336.931 2962.66Z" fill="white"/>
<path d="M752.78 2743.93C756.191 2750.73 764.585 2753.72 771.529 2750.63C778.472 2747.53 781.336 2739.51 777.925 2732.72L725.815 2628.92C722.404 2622.13 714.01 2619.13 707.066 2622.23C700.123 2625.32 697.259 2633.34 700.671 2640.14L752.78 2743.93Z" fill="white"/>
<path d="M725.817 2743.93C722.406 2750.73 714.012 2753.72 707.068 2750.63C700.125 2747.53 697.261 2739.51 700.672 2732.72L752.782 2628.92C756.193 2622.13 764.587 2619.13 771.531 2622.23C778.474 2625.32 781.338 2633.34 777.927 2640.14L725.817 2743.93Z" fill="white"/>
<path d="M686.202 2700.71C678.228 2700.67 671.243 2694.2 670.6 2686.25C669.957 2678.3 675.9 2671.89 683.873 2671.92L792.345 2672.43C800.319 2672.47 807.304 2678.94 807.947 2686.89C808.59 2694.84 802.647 2701.25 794.674 2701.21L686.202 2700.71Z" fill="white"/>
<path d="M1103.87 2352.18C1105.69 2355.79 1110.15 2357.38 1113.83 2355.73C1117.52 2354.09 1119.04 2349.83 1117.23 2346.22L1089.55 2291.07C1087.74 2287.46 1083.28 2285.87 1079.59 2287.52C1075.9 2289.16 1074.38 2293.42 1076.19 2297.03L1103.87 2352.18Z" fill="white"/>
<path d="M1089.55 2352.18C1087.73 2355.79 1083.28 2357.38 1079.59 2355.73C1075.9 2354.09 1074.38 2349.83 1076.19 2346.22L1103.87 2291.07C1105.68 2287.46 1110.14 2285.87 1113.83 2287.52C1117.52 2289.16 1119.04 2293.42 1117.23 2297.03L1089.55 2352.18Z" fill="white"/>
<path d="M1068.5 2329.21C1064.27 2329.19 1060.55 2325.75 1060.21 2321.53C1059.87 2317.31 1063.03 2313.9 1067.27 2313.92L1124.89 2314.19C1129.13 2314.21 1132.84 2317.65 1133.18 2321.87C1133.52 2326.09 1130.36 2329.5 1126.13 2329.48L1068.5 2329.21Z" fill="white"/>
<path d="M1121.19 3225.64C1123.01 3229.25 1127.47 3230.84 1131.16 3229.19C1134.84 3227.55 1136.37 3223.29 1134.55 3219.68L1106.87 3164.53C1105.06 3160.92 1100.6 3159.33 1096.91 3160.98C1093.22 3162.62 1091.7 3166.88 1093.51 3170.49L1121.19 3225.64Z" fill="white"/>
<path d="M1106.87 3225.64C1105.06 3229.25 1100.6 3230.84 1096.91 3229.19C1093.22 3227.55 1091.7 3223.29 1093.51 3219.68L1121.2 3164.53C1123.01 3160.92 1127.47 3159.33 1131.16 3160.98C1134.84 3162.62 1136.37 3166.88 1134.55 3170.49L1106.87 3225.64Z" fill="white"/>
<path d="M1085.83 3202.66C1081.59 3202.64 1077.88 3199.2 1077.54 3194.98C1077.2 3190.75 1080.35 3187.35 1084.59 3187.37L1142.21 3187.63C1146.45 3187.65 1150.16 3191.09 1150.5 3195.32C1150.84 3199.54 1147.69 3202.95 1143.45 3202.93L1085.83 3202.66Z" fill="white"/>
<path d="M166.522 3225.64C168.334 3229.25 172.794 3230.84 176.483 3229.19C180.171 3227.55 181.693 3223.29 179.881 3219.68L152.197 3164.53C150.385 3160.92 145.926 3159.33 142.237 3160.98C138.548 3162.62 137.027 3166.88 138.839 3170.49L166.522 3225.64Z" fill="white"/>
<path d="M152.197 3225.64C150.385 3229.25 145.926 3230.84 142.237 3229.19C138.548 3227.55 137.027 3223.29 138.839 3219.68L166.522 3164.53C168.334 3160.92 172.794 3159.33 176.483 3160.98C180.171 3162.62 181.693 3166.88 179.881 3170.49L152.197 3225.64Z" fill="white"/>
<path d="M131.152 3202.66C126.916 3202.64 123.205 3199.2 122.863 3194.98C122.522 3190.75 125.679 3187.35 129.915 3187.37L187.54 3187.63C191.776 3187.65 195.487 3191.09 195.829 3195.32C196.17 3199.54 193.013 3202.95 188.777 3202.93L131.152 3202.66Z" fill="white"/>
<path d="M556.54 1674.14C558.353 1677.75 562.812 1679.35 566.501 1677.7C570.189 1676.06 571.711 1671.8 569.899 1668.19L542.215 1613.04C540.403 1609.43 535.944 1607.84 532.255 1609.48C528.566 1611.13 527.045 1615.39 528.857 1619L556.54 1674.14Z" fill="white"/>
<path d="M542.216 1674.14C540.404 1677.75 535.945 1679.35 532.256 1677.7C528.567 1676.06 527.046 1671.8 528.858 1668.19L556.541 1613.04C558.354 1609.43 562.813 1607.84 566.502 1609.48C570.19 1611.13 571.712 1615.39 569.9 1619L542.216 1674.14Z" fill="white"/>
<path d="M521.171 1651.18C516.935 1651.16 513.224 1647.72 512.882 1643.5C512.541 1639.27 515.698 1635.87 519.934 1635.89L577.559 1636.16C581.795 1636.18 585.506 1639.62 585.848 1643.84C586.189 1648.06 583.032 1651.47 578.796 1651.45L521.171 1651.18Z" fill="white"/>
<path d="M44.2777 1561.63C46.0898 1565.24 50.5491 1566.84 54.2379 1565.19C57.9267 1563.55 59.448 1559.29 57.6359 1555.68L29.9524 1500.53C28.1404 1496.92 23.681 1495.33 19.9923 1496.97C16.3035 1498.62 14.7822 1502.88 16.5942 1506.49L44.2777 1561.63Z" fill="white"/>
<path d="M29.9523 1561.63C28.1402 1565.24 23.6809 1566.84 19.9921 1565.19C16.3033 1563.55 14.782 1559.29 16.5941 1555.68L44.2775 1500.53C46.0896 1496.92 50.5489 1495.33 54.2377 1496.97C57.9265 1498.62 59.4478 1502.88 57.6357 1506.49L29.9523 1561.63Z" fill="white"/>
<path d="M8.9075 1538.67C4.67123 1538.65 0.960123 1535.21 0.618522 1530.99C0.276922 1526.76 3.43418 1523.36 7.67046 1523.38L65.2949 1523.64C69.5312 1523.66 73.2423 1527.1 73.5839 1531.33C73.9255 1535.55 70.7682 1538.96 66.5319 1538.94L8.9075 1538.67Z" fill="white"/>
<path d="M349.819 1051.22C351.631 1054.83 356.09 1056.42 359.779 1054.78C363.468 1053.13 364.989 1048.87 363.177 1045.26L335.493 990.115C333.681 986.505 329.222 984.912 325.533 986.558C321.844 988.203 320.323 992.463 322.135 996.072L349.819 1051.22Z" fill="white"/>
<path d="M335.492 1051.22C333.679 1054.83 329.22 1056.42 325.531 1054.78C321.843 1053.13 320.321 1048.87 322.133 1045.26L349.817 990.115C351.629 986.505 356.088 984.912 359.777 986.558C363.466 988.203 364.987 992.463 363.175 996.072L335.492 1051.22Z" fill="white"/>
<path d="M314.447 1028.25C310.21 1028.23 306.499 1024.79 306.158 1020.57C305.816 1016.35 308.973 1012.94 313.21 1012.96L370.834 1013.23C375.07 1013.25 378.781 1016.69 379.123 1020.91C379.465 1025.13 376.307 1028.54 372.071 1028.52L314.447 1028.25Z" fill="white"/>
<path d="M1157.32 902.893C1159.13 906.502 1163.59 908.095 1167.28 906.45C1170.96 904.804 1172.49 900.544 1170.67 896.935L1142.99 841.788C1141.18 838.179 1136.72 836.586 1133.03 838.231C1129.34 839.877 1127.82 844.137 1129.63 847.746L1157.32 902.893Z" fill="white"/>
<path d="M1142.99 902.893C1141.18 906.502 1136.72 908.095 1133.03 906.45C1129.34 904.804 1127.82 900.544 1129.63 896.935L1157.32 841.788C1159.13 838.179 1163.59 836.586 1167.28 838.231C1170.97 839.877 1172.49 844.137 1170.67 847.746L1142.99 902.893Z" fill="white"/>
<path d="M1121.95 879.927C1117.71 879.907 1114 876.468 1113.66 872.245C1113.32 868.023 1116.47 864.616 1120.71 864.635L1178.33 864.904C1182.57 864.924 1186.28 868.363 1186.62 872.586C1186.96 876.808 1183.81 880.215 1179.57 880.196L1121.95 879.927Z" fill="white"/>
<rect width="5610" height="3353" fill="black" fill-opacity="0.8"/>
<defs>
<radialGradient id="paint0_radial_310_155" cx="0" cy="0" r="1" gradientUnits="userSpaceOnUse" gradientTransform="translate(2805 5589.5) rotate(-89.7519) scale(5543.55 4792.08)">
<stop offset="0.0334702" stop-color="white"/>
<stop offset="1"/>
<stop offset="1"/>
</radialGradient>
</defs>
</svg>
