<svg width="5610" height="3353" viewBox="0 0 5610 3353" fill="none" xmlns="http://www.w3.org/2000/svg">
<path d="M0 -0.000166825L0 3353H5610V3252.56V3227.42V3191.76V3146.31V3114.57V3103.58V3043.96V3031.81V3002.43V2984V2953.4V2915.35V2819.77V2797.84V2719.67V2699.85V2652.69V2565.06V2538.49V2513.82V2484.17V2442.59V2377.81V2364.58V2283V2254.94V2135.36V2005.96V1949.34V1807.93V1764.91V1711.92V1678.17V1644.41V1591.43V1548.41V1406.99V1350.38V1220.97V1101.38V1073.36V991.741V978.539V913.762V872.143V842.495V817.827V791.256V703.656V656.499V636.64V558.494V536.566V440.966V402.928V372.329V353.925V324.501V312.363V252.732V241.768V210.051V164.572V128.939V103.767V-0.000166825H0Z" fill="url(#paint0_radial_307_3)"/>
<path d="M0 -0.000166825L0 3353H5610V3252.56V3227.42V3191.76V3146.31V3114.57V3103.58V3043.96V3031.81V3002.43V2984V2953.4V2915.35V2819.77V2797.84V2719.67V2699.85V2652.69V2565.06V2538.49V2513.82V2484.17V2442.59V2377.81V2364.58V2283V2254.94V2135.36V2005.96V1949.34V1807.93V1764.91V1711.92V1678.17V1644.41V1591.43V1548.41V1406.99V1350.38V1220.97V1101.38V1073.36V991.741V978.539V913.762V872.143V842.495V817.827V791.256V703.656V656.499V636.64V558.494V536.566V440.966V402.928V372.329V353.925V324.501V312.363V252.732V241.768V210.051V164.572V128.939V103.767V-0.000166825H0Z" fill="black" fill-opacity="0.56"/>
<defs>
<radialGradient id="paint0_radial_307_3" cx="0" cy="0" r="1" gradientUnits="userSpaceOnUse" gradientTransform="translate(2847 3957.5) rotate(-90.2637) scale(3911.54 3381.3)">
<stop stop-color="#5F5E63"/>
<stop offset="0.801983"/>
<stop offset="0.953125"/>
<stop offset="1"/>
</radialGradient>
</defs>
</svg>
