<svg width="715" height="160" viewBox="0 0 715 160" fill="none" xmlns="http://www.w3.org/2000/svg">
<path d="M14.6957 129.811C6.77559 129.811 0.35498 136.389 0.35498 144.503C0.35498 152.617 6.77559 159.194 14.6957 159.194H87.4205C95.341 159.194 101.762 152.617 101.762 144.503C101.762 136.389 95.341 129.811 87.4205 129.811H14.6957Z" fill="#E9E9E9" fill-opacity="0.5"/>
<path d="M28.6815 144.503C28.6815 152.616 22.2609 159.194 14.3407 159.194C6.42061 159.194 0 152.616 0 144.503V14.6911C0 6.57738 6.42061 -0.00012207 14.3407 -0.00012207C22.2609 -0.00012207 28.6815 6.57738 28.6815 14.6911V144.503Z" fill="white" fill-opacity="0.5"/>
<path d="M129.511 29.383C137.431 29.383 143.852 22.805 143.852 14.6912C143.852 6.57743 137.431 -0.00012207 129.511 -0.00012207H56.7858C48.8657 -0.00012207 42.4451 6.57743 42.4451 14.6912C42.4451 22.805 48.8657 29.383 56.7858 29.383H129.511Z" fill="#E9E9E9" fill-opacity="0.5"/>
<path d="M115.525 14.6911C115.525 6.57738 121.946 -0.00012207 129.866 -0.00012207C137.786 -0.00012207 144.207 6.57738 144.207 14.6911V144.503C144.207 152.616 137.786 159.194 129.866 159.194C121.946 159.194 115.525 152.616 115.525 144.503V14.6911Z" fill="white" fill-opacity="0.5"/>
<path d="M84.9108 105.114H84.9112C87.611 103.883 88.7229 100.693 87.3945 97.9884L67.1385 56.748C65.8101 54.0437 62.5447 52.8489 59.8446 54.0795C57.1444 55.3105 56.0325 58.5008 57.3609 61.2051L77.617 102.445C78.9453 105.15 82.2111 106.345 84.9108 105.114Z" fill="white" fill-opacity="0.25"/>
<path d="M96.5587 84.8356C99.3834 84.8356 101.673 82.4898 101.673 79.596C101.673 76.7027 99.3834 74.3569 96.5587 74.3569H48.1808C45.3565 74.3569 43.0669 76.7027 43.0669 79.596C43.0669 82.4898 45.3565 84.8356 48.1808 84.8356H96.5587Z" fill="#E5E5E5" fill-opacity="0.5"/>
<path d="M59.8446 105.114C57.1444 103.883 56.0325 100.693 57.3609 97.9884L77.617 56.748C78.9453 54.0437 82.2111 52.8489 84.9108 54.0795C87.611 55.3105 88.7229 58.5008 87.3945 61.2051L67.1385 102.445C65.8101 105.15 62.5443 106.345 59.8446 105.114Z" fill="white" fill-opacity="0.5"/>
<path d="M194.418 49.7484C205.51 49.7484 214.502 40.8392 214.502 29.849C214.502 18.8589 205.51 9.94958 194.418 9.94958C183.326 9.94958 174.333 18.8589 174.333 29.849C174.333 40.8392 183.326 49.7484 194.418 49.7484Z" fill="#C4C4C4" fill-opacity="0.5"/>
<path fill-rule="evenodd" clip-rule="evenodd" d="M201.113 11.0819C193.312 13.8137 187.723 21.1848 187.723 29.849C187.723 38.5132 193.312 45.8844 201.113 48.6162C199.019 49.3493 196.765 49.7484 194.418 49.7484C183.326 49.7484 174.333 40.8391 174.333 29.849C174.333 18.859 183.326 9.94958 194.418 9.94958C196.765 9.94958 199.019 10.3488 201.113 11.0819Z" fill="white" fill-opacity="0.5"/>
<path d="M194.418 109.446C183.325 109.446 174.333 118.355 174.333 129.345C174.333 140.335 183.325 149.245 194.418 149.245C205.51 149.245 214.502 140.335 214.502 129.345C214.502 118.355 205.51 109.446 194.418 109.446Z" fill="#C4C4C4" fill-opacity="0.5"/>
<path fill-rule="evenodd" clip-rule="evenodd" d="M187.723 148.113C195.524 145.381 201.113 138.01 201.113 129.345C201.113 120.681 195.524 113.31 187.723 110.578C189.817 109.845 192.071 109.446 194.418 109.446C205.51 109.446 214.502 118.355 214.502 129.345C214.502 140.336 205.51 149.245 194.418 149.245C192.071 149.245 189.817 148.846 187.723 148.113Z" fill="white" fill-opacity="0.5"/>
<path d="M382.742 39.9825H303.623C295.57 39.9825 289.042 46.4507 289.042 54.4295C289.042 62.4084 295.57 68.8765 303.623 68.8765H382.742C390.795 68.8765 397.324 62.4084 397.324 54.4295C397.324 46.4507 390.795 39.9825 382.742 39.9825Z" fill="#E5E5E5" fill-opacity="0.5"/>
<path d="M387.62 14.2282C391.307 6.8247 400.447 3.58839 408.035 6.99973C415.623 10.4111 418.785 19.1783 415.098 26.5818L355.583 146.086C351.896 153.49 342.756 156.726 335.168 153.315C327.58 149.903 324.418 141.136 328.105 133.732L387.62 14.2282Z" fill="#C4C4C4" fill-opacity="0.5"/>
<path d="M295.226 14.208C291.547 6.80066 282.416 3.56732 274.831 6.98616C267.247 10.405 264.081 19.1814 267.76 26.5887L327.147 146.152C330.827 153.56 339.958 156.793 347.542 153.374C355.127 149.955 358.293 141.179 354.613 133.772L295.226 14.208Z" fill="white" fill-opacity="0.5"/>
<path d="M517.725 146.486C521.289 153.948 530.283 157.135 537.815 153.605C545.346 150.074 548.563 141.162 544.999 133.7L487.984 14.3147C484.421 6.85257 475.426 3.66564 467.894 7.19648C460.363 10.7273 457.146 19.6389 460.71 27.101L517.725 146.486Z" fill="#E5E5E5" fill-opacity="0.5"/>
<path d="M431 146.486C427.436 153.949 418.441 157.136 410.909 153.605C403.377 150.074 400.16 141.162 403.724 133.699L460.743 14.3082C464.307 6.8457 473.302 3.65865 480.834 7.18972C488.366 10.7208 491.583 19.6328 488.019 27.0953L431 146.486Z" fill="white" fill-opacity="0.5"/>
<path d="M648.15 145.683C651.714 153.145 660.708 156.332 668.24 152.801C675.771 149.27 678.988 140.359 675.424 132.896L618.409 13.5112C614.845 6.04904 605.851 2.86209 598.319 6.39293C590.788 9.92377 587.571 18.8353 591.135 26.2975L648.15 145.683Z" fill="white" fill-opacity="0.25"/>
<path d="M699.913 94.4984C708.245 94.4984 715 87.8061 715 79.5507C715 71.2954 708.245 64.603 699.913 64.603L566.609 64.603C558.276 64.603 551.522 71.2954 551.522 79.5507C551.522 87.8061 558.276 94.4984 566.609 94.4984L699.913 94.4984Z" fill="#E5E5E5" fill-opacity="0.5"/>
<path d="M618.411 145.683C614.847 153.145 605.852 156.332 598.321 152.801C590.789 149.27 587.573 140.359 591.137 132.896L648.152 13.5115C651.716 6.04942 660.71 2.86252 668.242 6.3934C675.774 9.92428 678.99 18.8359 675.426 26.298L618.411 145.683Z" fill="white" fill-opacity="0.5"/>
</svg>
