<svg id="logo" width="1751" height="1721" viewBox="0 0 1751 1721" fill="none" xmlns="http://www.w3.org/2000/svg" overflow="visible">
    <path id="branch3" d="M424.069 284.124C385.923 203.498 420.36 107.215 500.985 69.0693C581.611 30.9234 677.894 65.3598 716.04 145.985L1326.33 1435.9C1364.48 1516.52 1330.04 1612.81 1249.41 1650.95C1168.79 1689.1 1072.51 1654.66 1034.36 1574.04L424.069 284.124Z" fill="url(#paint0_radial_5_20)"/>
    <path id="branch3" d="M424.069 284.124C385.923 203.498 420.36 107.215 500.985 69.0693C581.611 30.9234 677.894 65.3598 716.04 145.985L1326.33 1435.9C1364.48 1516.52 1330.04 1612.81 1249.41 1650.95C1168.79 1689.1 1072.51 1654.66 1034.36 1574.04L424.069 284.124Z" fill="url(#paint1_angular_5_20)" fill-opacity="0.2"/>
    <path id="branch1" d="M161.699 1021.51C72.5055 1021.51 0.199463 949.205 0.199463 860.011C0.199463 770.817 72.5055 698.511 161.699 698.511H1588.7C1677.89 698.511 1750.2 770.817 1750.2 860.011C1750.2 949.205 1677.89 1021.51 1588.7 1021.51H161.699Z" fill="url(#paint2_radial_5_20)"/>
    <path id="branch1" d="M161.699 1021.51C72.5055 1021.51 0.199463 949.205 0.199463 860.011C0.199463 770.817 72.5055 698.511 161.699 698.511H1588.7C1677.89 698.511 1750.2 770.817 1750.2 860.011C1750.2 949.205 1677.89 1021.51 1588.7 1021.51H161.699Z" fill="url(#paint3_angular_5_20)" fill-opacity="0.2"/>
    <path id="branch2" d="M716.04 1574.04C677.894 1654.66 581.611 1689.1 500.985 1650.95C420.36 1612.81 385.923 1516.52 424.069 1435.9L1034.36 145.985C1072.51 65.3598 1168.79 30.9233 1249.41 69.0692C1330.04 107.215 1364.48 203.498 1326.33 284.124L716.04 1574.04Z" fill="url(#paint4_radial_5_20)"/>
    <path id="branch2" d="M716.04 1574.04C677.894 1654.66 581.611 1689.1 500.985 1650.95C420.36 1612.81 385.923 1516.52 424.069 1435.9L1034.36 145.985C1072.51 65.3598 1168.79 30.9233 1249.41 69.0692C1330.04 107.215 1364.48 203.498 1326.33 284.124L716.04 1574.04Z" fill="url(#paint5_angular_5_20)" fill-opacity="0.2"/>
    <defs>
        <radialGradient id="paint0_radial_5_20" cx="0" cy="0" r="1" gradientUnits="userSpaceOnUse" gradientTransform="translate(1442.5 2121.5) rotate(-114.497) scale(2457.1 453.511)">
            <stop stop-color="white" stop-opacity="0.5"/>
            <stop offset="0.914855" stop-opacity="0.5"/>
            <stop offset="1" stop-opacity="0.5"/>
        </radialGradient>
        <radialGradient id="paint1_angular_5_20" cx="0" cy="0" r="1" gradientUnits="userSpaceOnUse" gradientTransform="translate(875.199 860.011) rotate(65.3259) scale(872.666 161.069)">
            <stop stop-opacity="0"/>
            <stop offset="0.505"/>
            <stop offset="1"/>
        </radialGradient>
        <radialGradient id="paint2_radial_5_20" cx="0" cy="0" r="1" gradientUnits="userSpaceOnUse" gradientTransform="translate(2258.12 886.714) rotate(-179.177) scale(2457.1 453.511)">
            <stop stop-color="white" stop-opacity="0.5"/>
            <stop offset="0.914855" stop-opacity="0.5"/>
            <stop offset="1" stop-opacity="0.5"/>
        </radialGradient>
        <radialGradient id="paint3_angular_5_20" cx="0" cy="0" r="1" gradientUnits="userSpaceOnUse" gradientTransform="translate(875.199 860.011) rotate(0.645869) scale(872.666 161.069)">
            <stop stop-opacity="0"/>
            <stop offset="0.505"/>
            <stop offset="1"/>
        </radialGradient>
        <radialGradient id="paint4_radial_5_20" cx="0" cy="0" r="1" gradientUnits="userSpaceOnUse" gradientTransform="translate(1490.78 -378.637) rotate(116.143) scale(2457.1 453.511)">
            <stop stop-color="white" stop-opacity="0.5"/>
            <stop offset="0.914855" stop-opacity="0.5"/>
            <stop offset="1" stop-opacity="0.5"/>
        </radialGradient>
        <radialGradient id="paint5_angular_5_20" cx="0" cy="0" r="1" gradientUnits="userSpaceOnUse" gradientTransform="translate(875.199 860.011) rotate(-64.0341) scale(872.666 161.069)">
            <stop stop-opacity="0"/>
            <stop offset="0.505"/>
            <stop offset="1"/>
        </radialGradient>
    </defs>
</svg>