<svg width="3396" height="3408" viewBox="0 0 3396 3408" fill="none" xmlns="http://www.w3.org/2000/svg">
<path d="M2716.8 0H679.2C304.088 0 0 305.163 0 681.6V2726.4C0 3102.84 304.088 3408 679.2 3408H2716.8C3091.91 3408 3396 3102.84 3396 2726.4V681.6C3396 305.163 3091.91 0 2716.8 0Z" fill="#550098"/>
<path fill-rule="evenodd" clip-rule="evenodd" d="M2610.42 963.593C2610.42 868.247 2535.35 790.954 2442.75 790.954H961.232C908.907 790.954 862.18 815.633 831.431 854.303C805.828 883.677 790.371 921.786 790.371 963.43V2449.63C790.371 2542.52 867.285 2617.83 962.164 2617.83C1057.04 2617.83 1133.96 2542.52 1133.96 2449.63V1136.23H2442.75C2535.35 1136.23 2610.42 1058.94 2610.42 963.593Z" fill="white" fill-opacity="0.8"/>
<path d="M1126.62 2534.71C1038.77 2622.31 908.596 2635.7 835.855 2564.62C763.114 2493.54 775.356 2364.9 863.197 2277.3L2268.56 875.732C2356.4 788.128 2486.58 774.733 2559.32 845.814C2632.06 916.895 2619.82 1045.54 2531.98 1133.14L1126.62 2534.71Z" fill="white"/>
<path d="M2279.96 2534.73C2368.45 2622.3 2499.38 2635.9 2572.39 2565.1C2645.41 2494.3 2632.86 2365.92 2544.37 2278.35L1128.63 877.341C1040.14 789.771 909.211 776.175 836.196 846.973C763.181 917.771 775.726 1046.15 864.217 1133.72L2279.96 2534.73Z" fill="white"/>
<path fill-rule="evenodd" clip-rule="evenodd" d="M2560.83 2575.01C2593.37 2544.34 2613.61 2501.24 2613.61 2453.51V2449.06V963.827C2613.61 870.714 2536.56 795.232 2441.52 795.232C2346.47 795.232 2269.42 870.714 2269.42 963.827V2276.02H961.532C868.768 2276.02 793.568 2353.49 793.568 2449.06C793.568 2544.63 868.768 2622.11 961.532 2622.11H2441.52H2445.65C2490.23 2622.11 2530.76 2604.21 2560.83 2575.01Z" fill="white" fill-opacity="0.8"/>
</svg>
