<svg width="21" height="17" viewBox="0 0 21 17" fill="none" xmlns="http://www.w3.org/2000/svg">
<path d="M3.96467 8.71299C3.96467 6.13967 6.05072 4.05392 8.62389 4.05392C11.1977 4.05392 13.2836 6.13967 13.2836 8.71299H3.96467ZM18.2797 6.79321H16.1182C15.2652 3.48051 12.2585 1.03321 8.67978 1.03321C4.43832 1.03321 1 4.47153 1 8.71299C1 12.9546 4.43832 16.3931 8.67978 16.3931C12.2585 16.3931 15.2652 13.9458 16.1178 10.6332H18.2797C19.3405 10.6332 20.2 9.7733 20.2 8.71299C20.2 7.65268 19.3405 6.79321 18.2797 6.79321Z" fill="#2F4059"/>
<path d="M3.96467 8.71299C3.96467 6.13967 6.05083 4.05392 8.62404 4.05392C11.1977 4.05392 13.2835 6.13967 13.2835 8.71299H3.96467ZM18.2797 6.79321H16.1178C15.2651 3.48051 12.2585 1.03321 8.67978 1.03321C4.43857 1.03321 1 4.47153 1 8.71299C1 12.9546 4.43857 16.3931 8.67978 16.3931C12.2585 16.3931 15.2651 13.9458 16.1178 10.6332H18.2797C19.3401 10.6332 20.2 9.77331 20.2 8.71299C20.2 7.65268 19.3401 6.79321 18.2797 6.79321Z" fill="#2F4059"/>
<path d="M3.96467 8.71299C3.96467 6.13967 6.05083 4.05392 8.62404 4.05392C11.1977 4.05392 13.2836 6.13967 13.2836 8.71299H3.96467ZM18.2797 6.79321H16.1178C15.2652 3.48051 12.2585 1.03321 8.67978 1.03321C4.43857 1.03321 1 4.47153 1 8.71299C1 12.9546 4.43857 16.3931 8.67978 16.3931C12.2585 16.3931 15.2652 13.9458 16.1178 10.6332H18.2797C19.3401 10.6332 20.2 9.7733 20.2 8.71299C20.2 7.65268 19.3401 6.79321 18.2797 6.79321Z" fill="#2F4059" stroke="#2F4059" stroke-width="0.266667"/>
</svg>
