<svg width="1451" height="68" viewBox="0 0 1451 68" fill="none" xmlns="http://www.w3.org/2000/svg">
<g opacity="0.4" filter="url(#filter0_b_42_898)">
<rect width="1440" height="1" transform="matrix(1 0 0 -1 0 68)" fill="#E7E7F2"/>
</g>
<path d="M714.142 33H709.173V27.6445L703.395 16.0898H708.704L711.669 22.9453H711.763L714.728 16.0898H719.919L714.142 27.6445V33ZM724.389 29.9766C724.944 29.9766 725.425 29.8359 725.831 29.5547C726.237 29.2656 726.44 28.8906 726.44 28.4297V27.5859L724.401 27.7266C723.948 27.7578 723.596 27.875 723.346 28.0781C723.096 28.2812 722.971 28.543 722.971 28.8633C722.971 29.207 723.1 29.4805 723.358 29.6836C723.616 29.8789 723.96 29.9766 724.389 29.9766ZM722.596 33.1875C721.393 33.1875 720.366 32.8164 719.514 32.0742C718.663 31.3242 718.237 30.3789 718.237 29.2383C718.237 28.0039 718.694 27.0508 719.608 26.3789C720.53 25.6992 721.862 25.3047 723.604 25.1953L726.44 25.0195V24.3867C726.44 23.9648 726.296 23.6367 726.007 23.4023C725.717 23.168 725.342 23.0508 724.882 23.0508C724.405 23.0508 724.014 23.1641 723.71 23.3906C723.405 23.6172 723.233 23.9023 723.194 24.2461H718.905C718.967 22.8555 719.553 21.7578 720.663 20.9531C721.772 20.1406 723.264 19.7344 725.139 19.7344C726.928 19.7344 728.374 20.1445 729.475 20.9648C730.577 21.7773 731.128 22.8398 731.128 24.1523V33H726.44V31.2656H726.346C726.018 31.875 725.507 32.3477 724.811 32.6836C724.124 33.0195 723.385 33.1875 722.596 33.1875ZM733.184 33V20.0625H737.872V22.6055H737.965C738.45 20.7852 739.458 19.875 740.989 19.875C741.403 19.875 741.778 19.9375 742.114 20.0625V24.0938C741.692 23.9141 741.227 23.8242 740.719 23.8242C738.899 23.8242 737.989 24.7344 737.989 26.5547V33H733.184ZM749.737 33.3281C747.612 33.3281 745.948 32.7383 744.744 31.5586C743.541 30.3711 742.94 28.6914 742.94 26.5195C742.94 24.4023 743.549 22.7422 744.768 21.5391C745.994 20.3359 747.651 19.7344 749.737 19.7344C751.838 19.7344 753.498 20.3359 754.717 21.5391C755.936 22.7344 756.545 24.3945 756.545 26.5195C756.545 28.6914 755.944 30.3711 754.74 31.5586C753.537 32.7383 751.869 33.3281 749.737 33.3281ZM749.737 29.8945C750.338 29.8945 750.811 29.6016 751.155 29.0156C751.498 28.4297 751.67 27.6016 751.67 26.5312C751.67 25.4844 751.494 24.6641 751.143 24.0703C750.799 23.4688 750.33 23.168 749.737 23.168C749.143 23.168 748.674 23.4688 748.33 24.0703C747.987 24.6641 747.815 25.4844 747.815 26.5312C747.815 27.6094 747.983 28.4414 748.319 29.0273C748.655 29.6055 749.127 29.8945 749.737 29.8945ZM758.051 24.082C758.051 22.7305 758.59 21.668 759.668 20.8945C760.746 20.1211 762.227 19.7344 764.109 19.7344C766 19.7344 767.477 20.1328 768.539 20.9297C769.609 21.7266 770.145 22.832 770.145 24.2461H765.785C765.785 23.8242 765.629 23.4922 765.316 23.25C765.012 23 764.598 22.875 764.074 22.875C763.645 22.875 763.297 22.957 763.031 23.1211C762.773 23.2773 762.645 23.4922 762.645 23.7656C762.645 24.1719 763.062 24.4531 763.898 24.6094L766.816 25.1836C768.098 25.4336 769.035 25.8477 769.629 26.4258C770.23 26.9961 770.531 27.7734 770.531 28.7578C770.531 30.1562 769.953 31.2695 768.797 32.0977C767.648 32.918 766.121 33.3281 764.215 33.3281C762.223 33.3281 760.668 32.9258 759.551 32.1211C758.441 31.3086 757.844 30.2031 757.758 28.8047H762.398C762.445 29.2344 762.633 29.5742 762.961 29.8242C763.297 30.0664 763.734 30.1875 764.273 30.1875C764.742 30.1875 765.109 30.1133 765.375 29.9648C765.641 29.8086 765.773 29.5977 765.773 29.332C765.773 29.1289 765.68 28.9648 765.492 28.8398C765.305 28.707 764.992 28.6016 764.555 28.5234L762.059 28.0312C760.754 27.7734 759.758 27.3086 759.07 26.6367C758.391 25.957 758.051 25.1055 758.051 24.082ZM773.22 17.2266H778.025V20.0625H780.299V23.543H778.025V28.3242C778.025 29.1445 778.51 29.5547 779.478 29.5547C779.791 29.5547 780.064 29.5352 780.299 29.4961V32.8242C779.728 32.9414 779.068 33 778.318 33C776.498 33 775.193 32.7188 774.404 32.1562C773.615 31.5938 773.22 30.6719 773.22 29.3906V23.543H771.51V20.0625H773.22V17.2266ZM788.507 23.0391C787.96 23.0391 787.5 23.2188 787.125 23.5781C786.75 23.9375 786.539 24.3945 786.492 24.9492H790.523C790.484 24.3711 790.277 23.9102 789.902 23.5664C789.535 23.2148 789.07 23.0391 788.507 23.0391ZM790.664 28.8047H794.941C794.738 30.2031 794.066 31.3086 792.925 32.1211C791.785 32.9258 790.328 33.3281 788.554 33.3281C786.437 33.3281 784.781 32.7344 783.585 31.5469C782.39 30.3516 781.793 28.7031 781.793 26.6016C781.793 24.4844 782.386 22.8125 783.574 21.5859C784.761 20.3516 786.371 19.7344 788.402 19.7344C790.41 19.7344 792.011 20.3281 793.207 21.5156C794.402 22.6953 795 24.2734 795 26.25V27.5508H786.421V27.8555C786.421 28.4883 786.628 29.0117 787.043 29.4258C787.457 29.832 787.984 30.0352 788.625 30.0352C789.117 30.0352 789.543 29.9258 789.902 29.707C790.269 29.4883 790.523 29.1875 790.664 28.8047ZM796.704 33V20.0625H801.392V22.6055H801.486C801.97 20.7852 802.978 19.875 804.509 19.875C804.923 19.875 805.298 19.9375 805.634 20.0625V24.0938C805.212 23.9141 804.747 23.8242 804.24 23.8242C802.419 23.8242 801.509 24.7344 801.509 26.5547V33H796.704ZM810.058 32.4492C809.581 32.9258 809.007 33.1641 808.335 33.1641C807.663 33.1641 807.089 32.9258 806.612 32.4492C806.136 31.9727 805.897 31.3984 805.897 30.7266C805.897 30.0547 806.136 29.4805 806.612 29.0039C807.089 28.5273 807.663 28.2891 808.335 28.2891C809.007 28.2891 809.581 28.5273 810.058 29.0039C810.534 29.4805 810.772 30.0547 810.772 30.7266C810.772 31.3984 810.534 31.9727 810.058 32.4492Z" fill="white"/>
<path d="M1400.06 30L1398.66 26.1152H1393.33L1391.92 30H1390.65L1395.4 17.3174H1396.59L1401.33 30H1400.06ZM1395.93 18.8906L1393.69 25.0781H1398.3L1396.05 18.8906H1395.93ZM1408.01 30.1582C1407.28 30.1582 1406.63 29.9766 1406.06 29.6133C1405.48 29.25 1405.06 28.749 1404.77 28.1104H1404.66V30H1403.56V16.7637H1404.71V22.3711H1404.82C1405.08 21.7559 1405.5 21.2695 1406.08 20.9121C1406.65 20.5547 1407.29 20.376 1408.01 20.376C1409.21 20.376 1410.17 20.8213 1410.9 21.7119C1411.63 22.6025 1411.99 23.7861 1411.99 25.2627C1411.99 26.7334 1411.62 27.917 1410.89 28.8135C1410.17 29.71 1409.2 30.1582 1408.01 30.1582ZM1409.99 22.4502C1409.44 21.7588 1408.7 21.4131 1407.77 21.4131C1406.84 21.4131 1406.09 21.7646 1405.53 22.4678C1404.97 23.165 1404.69 24.0967 1404.69 25.2627C1404.69 26.4287 1404.97 27.3633 1405.53 28.0664C1406.09 28.7637 1406.84 29.1123 1407.77 29.1123C1408.7 29.1123 1409.44 28.7666 1409.99 28.0752C1410.53 27.3779 1410.8 26.4375 1410.8 25.2539C1410.8 24.0762 1410.53 23.1416 1409.99 22.4502ZM1421.45 28.8486C1420.67 29.7217 1419.62 30.1582 1418.3 30.1582C1416.98 30.1582 1415.93 29.7217 1415.15 28.8486C1414.39 27.9697 1414 26.7744 1414 25.2627C1414 23.751 1414.39 22.5586 1415.15 21.6855C1415.93 20.8125 1416.98 20.376 1418.3 20.376C1419.62 20.376 1420.67 20.8125 1421.45 21.6855C1422.22 22.5586 1422.61 23.751 1422.61 25.2627C1422.61 26.7744 1422.22 27.9697 1421.45 28.8486ZM1416.02 28.0928C1416.57 28.7725 1417.33 29.1123 1418.3 29.1123C1419.27 29.1123 1420.04 28.7725 1420.59 28.0928C1421.14 27.4072 1421.41 26.4639 1421.41 25.2627C1421.41 24.0615 1421.14 23.1211 1420.59 22.4414C1420.04 21.7559 1419.27 21.4131 1418.3 21.4131C1417.33 21.4131 1416.57 21.7559 1416.02 22.4414C1415.46 23.1211 1415.19 24.0615 1415.19 25.2627C1415.19 26.4639 1415.46 27.4072 1416.02 28.0928ZM1432.61 20.5342V30H1431.51V28.2949H1431.41C1431.17 28.8867 1430.78 29.3467 1430.25 29.6748C1429.71 29.9971 1429.07 30.1582 1428.32 30.1582C1427.27 30.1582 1426.46 29.8535 1425.88 29.2441C1425.3 28.6289 1425.02 27.7764 1425.02 26.6865V20.5342H1426.17V26.3965C1426.17 27.2812 1426.37 27.9551 1426.78 28.418C1427.2 28.875 1427.81 29.1035 1428.62 29.1035C1429.5 29.1035 1430.19 28.8398 1430.69 28.3125C1431.2 27.7793 1431.46 27.0615 1431.46 26.1592V20.5342H1432.61ZM1436.19 18.0732H1437.34V20.5342H1439.53V21.5098H1437.34V27.3809C1437.34 27.9609 1437.46 28.3828 1437.69 28.6465C1437.92 28.9043 1438.31 29.0332 1438.84 29.0332C1439.1 29.0332 1439.33 29.0244 1439.53 29.0068V29.9912C1439.29 30.0322 1439.02 30.0527 1438.72 30.0527C1437.81 30.0527 1437.16 29.8682 1436.77 29.499C1436.38 29.124 1436.19 28.5059 1436.19 27.6445V21.5098H1434.64V20.5342H1436.19V18.0732Z" fill="white"/>
<path d="M6.59248 40.5665C4.11742 40.5665 2.11096 42.6222 2.11096 45.1577C2.11096 47.6933 4.11742 49.7488 6.59248 49.7488H29.3192C31.7944 49.7488 33.8008 47.6933 33.8008 45.1577C33.8008 42.6222 31.7944 40.5665 29.3192 40.5665H6.59248Z" fill="#E9E9E9" fill-opacity="0.5"/>
<path d="M10.963 45.1576C10.963 47.6932 8.95658 49.7487 6.48152 49.7487C4.00646 49.7487 2 47.6932 2 45.1576V4.59117C2 2.05561 4.00646 0.00012207 6.48152 0.00012207C8.95658 0.00012207 10.963 2.05561 10.963 4.59117V45.1576Z" fill="white" fill-opacity="0.5"/>
<path d="M42.4725 9.1823C44.9476 9.1823 46.954 7.12667 46.954 4.59109C46.954 2.0555 44.9476 0 42.4725 0H19.7457C17.2706 0 15.2642 2.0555 15.2642 4.59109C15.2642 7.12667 17.2706 9.1823 19.7457 9.1823H42.4725Z" fill="#E9E9E9" fill-opacity="0.5"/>
<path d="M38.1019 4.59105C38.1019 2.05549 40.1084 0 42.5834 0C45.0585 0 47.065 2.05549 47.065 4.59105V45.1575C47.065 47.6931 45.0585 49.7486 42.5834 49.7486C40.1084 49.7486 38.1019 47.6931 38.1019 45.1575V4.59105Z" fill="white" fill-opacity="0.5"/>
<path d="M28.5348 32.8483H28.5349C29.3786 32.4638 29.7261 31.4668 29.311 30.6217L22.9809 17.734C22.5658 16.8888 21.5454 16.5155 20.7015 16.9C19.8577 17.2847 19.5103 18.2817 19.9254 19.1268L26.2555 32.0145C26.6706 32.8596 27.6911 33.233 28.5348 32.8483Z" fill="white" fill-opacity="0.25"/>
<path d="M32.1748 26.5114C33.0576 26.5114 33.7731 25.7784 33.7731 24.8741C33.7731 23.9699 33.0576 23.2368 32.1748 23.2368H17.0566C16.174 23.2368 15.4585 23.9699 15.4585 24.8741C15.4585 25.7784 16.174 26.5114 17.0566 26.5114H32.1748Z" fill="#E5E5E5" fill-opacity="0.5"/>
<path d="M20.7015 32.8483C19.8577 32.4638 19.5103 31.4668 19.9254 30.6217L26.2555 17.734C26.6706 16.8888 27.6911 16.5155 28.5348 16.9C29.3786 17.2847 29.7261 18.2817 29.311 19.1268L22.9809 32.0145C22.5658 32.8596 21.5452 33.233 20.7015 32.8483Z" fill="white" fill-opacity="0.5"/>
<path d="M62.7562 15.5466C66.2226 15.5466 69.0327 12.7625 69.0327 9.328C69.0327 5.89355 66.2226 3.10938 62.7562 3.10938C59.2898 3.10938 56.4797 5.89355 56.4797 9.328C56.4797 12.7625 59.2898 15.5466 62.7562 15.5466Z" fill="#C4C4C4" fill-opacity="0.5"/>
<path fill-rule="evenodd" clip-rule="evenodd" d="M64.8484 3.46321C62.4106 4.31691 60.664 6.62041 60.664 9.328C60.664 12.0356 62.4106 14.3391 64.8484 15.1928C64.194 15.4219 63.4898 15.5466 62.7562 15.5466C59.2898 15.5466 56.4797 12.7624 56.4797 9.328C56.4797 5.89358 59.2898 3.10938 62.7562 3.10938C63.4898 3.10938 64.194 3.23412 64.8484 3.46321Z" fill="white" fill-opacity="0.5"/>
<path d="M62.7561 34.2022C59.2897 34.2022 56.4797 36.9863 56.4797 40.4208C56.4797 43.8552 59.2897 46.6394 62.7561 46.6394C66.2225 46.6394 69.0326 43.8552 69.0326 40.4208C69.0326 36.9863 66.2225 34.2022 62.7561 34.2022Z" fill="#C4C4C4" fill-opacity="0.5"/>
<path fill-rule="evenodd" clip-rule="evenodd" d="M60.6641 46.2857C63.1018 45.432 64.8485 43.1285 64.8485 40.4209C64.8485 37.7133 63.1018 35.4098 60.6641 34.5561C61.3184 34.327 62.0227 34.2023 62.7563 34.2023C66.2226 34.2023 69.0327 36.9865 69.0327 40.4209C69.0327 43.8553 66.2226 46.6395 62.7563 46.6395C62.0227 46.6395 61.3184 46.5148 60.6641 46.2857Z" fill="white" fill-opacity="0.5"/>
<path d="M121.608 12.4948H96.8831C94.3665 12.4948 92.3264 14.5161 92.3264 17.0095C92.3264 19.5029 94.3665 21.5242 96.8831 21.5242H121.608C124.125 21.5242 126.165 19.5029 126.165 17.0095C126.165 14.5161 124.125 12.4948 121.608 12.4948Z" fill="#E5E5E5" fill-opacity="0.5"/>
<path d="M123.132 4.44646C124.285 2.13284 127.141 1.12148 129.512 2.18754C131.883 3.25359 132.872 5.99336 131.719 8.30698L113.121 45.6524C111.969 47.966 109.112 48.9774 106.741 47.9113C104.37 46.8453 103.382 44.1055 104.534 41.7919L123.132 4.44646Z" fill="#C4C4C4" fill-opacity="0.5"/>
<path d="M94.259 4.44014C93.1093 2.12532 90.2558 1.1149 87.8856 2.1833C85.5154 3.25169 84.5261 5.99433 85.6758 8.30915L104.234 45.6731C105.384 47.9879 108.238 48.9983 110.608 47.93C112.978 46.8616 113.967 44.1189 112.818 41.8041L94.259 4.44014Z" fill="white" fill-opacity="0.5"/>
<path d="M163.791 45.7774C164.904 48.1094 167.715 49.1053 170.069 48.0019C172.422 46.8985 173.428 44.1136 172.314 41.7817L154.497 4.47345C153.383 2.14152 150.572 1.14559 148.218 2.24899C145.865 3.35239 144.86 6.13727 145.973 8.46921L163.791 45.7774Z" fill="#E5E5E5" fill-opacity="0.5"/>
<path d="M136.689 45.7775C135.575 48.1095 132.764 49.1055 130.41 48.002C128.057 46.8986 127.051 44.1135 128.165 41.7815L145.984 4.47142C147.097 2.13937 149.908 1.14341 152.262 2.24688C154.616 3.35034 155.621 6.13538 154.507 8.46743L136.689 45.7775Z" fill="white" fill-opacity="0.5"/>
<path d="M204.549 45.5263C205.662 47.8583 208.473 48.8542 210.827 47.7508C213.18 46.6474 214.185 43.8625 213.072 41.5306L195.254 4.22235C194.141 1.89042 191.33 0.894487 188.976 1.99788C186.623 3.10128 185.618 5.88617 186.731 8.21811L204.549 45.5263Z" fill="white" fill-opacity="0.25"/>
<path d="M220.725 29.5311C223.329 29.5311 225.439 27.4397 225.439 24.8599C225.439 22.2801 223.329 20.1887 220.725 20.1887L179.067 20.1887C176.463 20.1887 174.352 22.2801 174.352 24.8599C174.352 27.4397 176.463 29.5311 179.067 29.5311L220.725 29.5311Z" fill="#E5E5E5" fill-opacity="0.5"/>
<path d="M195.255 45.5264C194.141 47.8583 191.33 48.8542 188.977 47.7508C186.623 46.6474 185.618 43.8625 186.732 41.5306L204.549 4.22247C205.663 1.89054 208.474 0.894622 210.827 1.99803C213.181 3.10144 214.186 5.88634 213.073 8.21827L195.255 45.5264Z" fill="white" fill-opacity="0.5"/>
<defs>
<filter id="filter0_b_42_898" x="-60" y="7" width="1560" height="121" filterUnits="userSpaceOnUse" color-interpolation-filters="sRGB">
<feFlood flood-opacity="0" result="BackgroundImageFix"/>
<feGaussianBlur in="BackgroundImageFix" stdDeviation="30"/>
<feComposite in2="SourceAlpha" operator="in" result="effect1_backgroundBlur_42_898"/>
<feBlend mode="normal" in="SourceGraphic" in2="effect1_backgroundBlur_42_898" result="shape"/>
</filter>
</defs>
</svg>
