<svg width="58" height="58" viewBox="0 0 58 58" fill="none" xmlns="http://www.w3.org/2000/svg">
<g filter="url(#filter0_d)">
<rect x="4" width="50" height="50" rx="10" fill="#0C0C0C"/>
</g>
<mask id="path-2-inside-1" fill="white">
<path fill-rule="evenodd" clip-rule="evenodd" d="M37.7556 11.002C37.6706 11.0007 37.5854 11 37.5 11C29.4919 11 23 16.8203 23 24C23 31.1797 29.4919 37 37.5 37C38.7069 37 39.8794 36.8678 41.0003 36.6187C38.133 39.3344 34.261 41 30 41C21.1634 41 14 33.8366 14 25C14 16.1634 21.1634 9 30 9C32.814 9 35.4583 9.72643 37.7556 11.002Z"/>
</mask>
<path fill-rule="evenodd" clip-rule="evenodd" d="M37.7556 11.002C37.6706 11.0007 37.5854 11 37.5 11C29.4919 11 23 16.8203 23 24C23 31.1797 29.4919 37 37.5 37C38.7069 37 39.8794 36.8678 41.0003 36.6187C38.133 39.3344 34.261 41 30 41C21.1634 41 14 33.8366 14 25C14 16.1634 21.1634 9 30 9C32.814 9 35.4583 9.72643 37.7556 11.002Z" fill="white"/>
<path d="M37.7556 11.002L37.7401 12.0019L38.241 10.1277L37.7556 11.002ZM41.0003 36.6187L41.688 37.3447L44.3137 34.8579L40.7834 35.6425L41.0003 36.6187ZM37.5 12C37.5802 12 37.6602 12.0006 37.7401 12.0019L37.7711 10.0021C37.6809 10.0007 37.5905 10 37.5 10V12ZM24 24C24 17.4725 29.9387 12 37.5 12V10C29.0451 10 22 16.1681 22 24H24ZM37.5 36C29.9387 36 24 30.5275 24 24H22C22 31.8319 29.0451 38 37.5 38V36ZM40.7834 35.6425C39.7335 35.8758 38.6338 36 37.5 36V38C38.78 38 40.0252 37.8598 41.2173 37.5949L40.7834 35.6425ZM40.3127 35.8926C37.6237 38.4394 33.9951 40 30 40V42C34.5269 42 38.6423 40.2293 41.688 37.3447L40.3127 35.8926ZM30 40C21.7157 40 15 33.2843 15 25H13C13 34.3888 20.6112 42 30 42V40ZM15 25C15 16.7157 21.7157 10 30 10V8C20.6112 8 13 15.6112 13 25H15ZM30 10C32.6398 10 35.1175 10.681 37.2702 11.8763L38.241 10.1277C35.799 8.77181 32.9881 8 30 8V10Z" fill="white" mask="url(#path-2-inside-1)"/>
<rect x="39.9609" y="30.5587" width="2.76857" height="15" rx="1.38429" transform="rotate(154.678 39.9609 30.5587)" fill="white" fill-opacity="0.7"/>
<rect x="43" y="22.9829" width="2.76857" height="15" rx="1.38429" transform="rotate(90 43 22.9829)" fill="#E5E5E5"/>
<rect width="2.76857" height="15" rx="1.38429" transform="matrix(0.903916 0.42771 0.42771 -0.903916 31.043 30.5587)" fill="white"/>
<defs>
<filter id="filter0_d" x="0" y="0" width="58" height="58" filterUnits="userSpaceOnUse" color-interpolation-filters="sRGB">
<feFlood flood-opacity="0" result="BackgroundImageFix"/>
<feColorMatrix in="SourceAlpha" type="matrix" values="0 0 0 0 0 0 0 0 0 0 0 0 0 0 0 0 0 0 127 0"/>
<feOffset dy="4"/>
<feGaussianBlur stdDeviation="2"/>
<feColorMatrix type="matrix" values="0 0 0 0 0 0 0 0 0 0 0 0 0 0 0 0 0 0 0.25 0"/>
<feBlend mode="normal" in2="BackgroundImageFix" result="effect1_dropShadow"/>
<feBlend mode="normal" in="SourceGraphic" in2="effect1_dropShadow" result="shape"/>
</filter>
</defs>
</svg>
