<svg width="30" height="30" viewBox="0 0 30 30" fill="none" xmlns="http://www.w3.org/2000/svg">
<path d="M25.462 19.105V25.953H4.515V19.105H0.488998V27.966C0.488998 29.077 1.389 29.978 2.505 29.978H27.472C28.587 29.978 29.488 29.078 29.488 27.966V19.105H25.462Z" fill="white"/>
<path d="M14.62 18.426L8.856 11.461C8.856 11.461 7.979 10.633 8.93 10.633C9.881 10.633 12.178 10.633 12.178 10.633C12.178 10.633 12.178 10.076 12.178 9.217C12.178 6.768 12.178 2.311 12.178 0.494C12.178 0.494 12.049 0 12.793 0C13.543 0 16.828 0 17.365 0C17.901 0 17.889 0.416 17.889 0.416C17.889 2.178 17.889 6.789 17.889 9.158C17.889 9.926 17.889 10.424 17.889 10.424C17.889 10.424 19.731 10.424 20.887 10.424C22.041 10.424 21.172 11.291 21.172 11.291C21.172 11.291 16.268 17.801 15.584 18.484C15.092 18.979 14.62 18.426 14.62 18.426Z" fill="white"/>
</svg>
