<svg width="400" height="618" viewBox="0 0 400 618" fill="none" xmlns="http://www.w3.org/2000/svg">
<path d="M400 618H0.397324V0H12.3673H15.364H19.614H25.0307H28.8127H30.1226H37.228H38.676H42.1773H44.3733H48.0207H52.5553H63.946H66.56H75.876H78.238H83.8587H94.302H97.4687H100.409H103.942H108.898H116.619H118.195H127.918H131.261H145.513H160.935H167.682H184.535H189.663H195.977H200H204.023H210.337H215.465H232.318H239.065H254.487H268.74H272.08H281.807H283.38H291.1H296.06H299.593H302.533H305.7H316.14H321.76H324.127H333.44H336.053H347.447H351.98H355.627H357.82H361.327H362.773H369.88H371.187H374.967H380.387H384.633H387.633H400V618Z" fill="url(#paint0_radial)"/>
<path d="M191.752 413.686C176.902 412.057 163.423 406.528 151.894 397.378C148.765 394.892 142.508 388.571 140.129 385.506C132.522 375.649 127.872 365.191 125.879 353.469C125.193 349.462 125 346.826 125 341.705C125 326.897 129.029 314.104 137.75 301.289C138.822 299.703 153.051 277.16 169.359 251.209C185.645 225.236 199.06 204 199.145 204C199.338 204 264.398 304.418 265.855 306.968C270.462 315.025 273.591 324.604 274.684 334.076C275.091 337.74 275.112 345.669 274.705 349.291C273.184 362.791 268.405 374.47 259.876 385.506C257.497 388.571 251.24 394.892 248.111 397.378C236.497 406.614 222.975 412.1 208.039 413.686C204.331 414.071 195.352 414.071 191.752 413.686ZM204.396 387.435C225.375 385.506 242.797 370.313 246.697 350.576C247.683 345.541 247.811 339.583 247.04 334.933C245.733 327.004 242.368 319.59 237.311 313.418C234.911 310.504 230.068 306.089 227.389 304.396C226.854 304.075 226.918 304.203 227.882 305.832C233.239 314.725 235.318 325.997 233.539 336.326C230.154 355.891 213.846 371.32 193.467 374.213C182.623 375.777 170.88 373.57 161.88 368.277L160.551 367.506L161.901 369.263C162.651 370.249 164.366 372.156 165.716 373.506C171.759 379.57 179.366 383.92 187.659 386.042C193.252 387.478 198.867 387.949 204.396 387.435Z" fill="url(#paint1_radial)"/>
<defs>
<radialGradient id="paint0_radial" cx="0" cy="0" r="1" gradientUnits="userSpaceOnUse" gradientTransform="translate(353.794 31.2298) rotate(15.2038) scale(748.263 604.897)">
<stop stop-color="#101113"/>
<stop stop-color="#111214"/>
<stop offset="0.0001" stop-color="#202D5C"/>
<stop offset="0.328125" stop-color="#252D4A"/>
<stop offset="1" stop-color="#232837"/>
</radialGradient>
<radialGradient id="paint1_radial" cx="0" cy="0" r="1" gradientUnits="userSpaceOnUse" gradientTransform="translate(17 607) rotate(-57.7565) scale(714.127 510.151)">
<stop/>
<stop offset="1" stop-color="#CED9FF" stop-opacity="0"/>
</radialGradient>
</defs>
</svg>
