<svg width="50" height="50" viewBox="0 0 50 50" fill="none" xmlns="http://www.w3.org/2000/svg">
<rect width="50" height="50" rx="10" fill="#0C0C0C"/>
<path d="M32.7539 30.8105H17.6296V32.9291H32.7539V30.8105Z" fill="#CACACA"/>
<path fill-rule="evenodd" clip-rule="evenodd" d="M21.7958 32.9272C20.4005 35.7471 18.6757 36.8886 17.0012 38.2743C18.878 38.2816 20.7487 37.9731 22.6874 36.5809C22.7205 40.8765 23.4437 42.3449 25.187 43.7881C26.9106 42.39 27.7071 40.8812 27.7012 36.5809C29.6399 37.9731 31.5058 38.2816 33.3826 38.2743C31.7083 36.8887 29.9881 35.7467 28.5929 32.9272H21.7958Z" fill="#FBFBFB"/>
<path fill-rule="evenodd" clip-rule="evenodd" d="M25.1898 6.03937C19.7416 10.9903 17.6445 16.6934 21.9739 23.8363C22.9627 26.0063 23.7418 28.2467 23.5818 30.81H26.7977C26.6377 28.2467 27.4169 26.0063 28.4056 23.8363C32.7351 16.6934 30.6379 10.9903 25.1898 6.03937Z" fill="#FBFBFB"/>
<path fill-rule="evenodd" clip-rule="evenodd" d="M13.6469 18.3267C8.153 18.4395 4.49012 26.3371 16.0198 30.1885C12.2092 23.7989 19.2779 26.1669 20.2102 30.81H22.9436C21.4344 21.3791 17.1665 18.2544 13.6469 18.3267Z" fill="#D8D8D8"/>
<path fill-rule="evenodd" clip-rule="evenodd" d="M36.5235 18.3267C33.0462 18.3824 28.9202 21.5678 27.4412 30.81H30.1698C31.1021 26.1669 38.1756 23.7989 34.365 30.1885C46.0424 26.2877 42.1331 18.2368 36.5235 18.3267Z" fill="#D8D8D8"/>
</svg>
