<svg width="450" height="452" viewBox="0 0 450 452" fill="none" xmlns="http://www.w3.org/2000/svg">
<path d="M360 0H90C40.2944 0 0 40.4368 0 90.318V361.272C0 411.153 40.2944 451.59 90 451.59H360C409.706 451.59 450 411.153 450 361.272V90.318C450 40.4368 409.706 0 360 0Z" fill="#550098" fill-opacity="0.2"/>
<path fill-rule="evenodd" clip-rule="evenodd" d="M345.903 127.687C345.903 115.053 335.956 104.811 323.685 104.811H127.372C120.436 104.811 114.243 108.082 110.169 113.209C106.778 117.101 104.731 122.149 104.731 127.666V324.6C104.731 336.91 114.923 346.888 127.495 346.888C140.067 346.888 150.259 336.91 150.259 324.6V150.563H323.685C335.956 150.563 345.903 140.321 345.903 127.687Z" fill="white" fill-opacity="0.4"/>
<path d="M149.287 335.87C137.647 347.478 120.397 349.253 110.758 339.834C101.12 330.415 102.742 313.369 114.381 301.761L300.605 116.041C312.245 104.433 329.494 102.658 339.133 112.077C348.772 121.496 347.15 138.542 335.51 150.15L149.287 335.87Z" fill="white" fill-opacity="0.5"/>
<path d="M302.115 335.874C313.841 347.478 331.189 349.28 340.864 339.898C350.54 330.517 348.877 313.505 337.151 301.902L149.553 116.255C137.827 104.652 120.478 102.85 110.803 112.231C101.128 121.613 102.791 138.624 114.516 150.228L302.115 335.874Z" fill="white" fill-opacity="0.5"/>
<path fill-rule="evenodd" clip-rule="evenodd" d="M339.329 341.217C343.643 337.152 346.327 331.44 346.327 325.114V127.717C346.327 115.379 336.117 105.377 323.523 105.377C310.929 105.377 300.719 115.379 300.719 127.717V301.594H127.412C115.119 301.594 105.155 311.861 105.155 324.524C105.155 337.188 115.119 347.454 127.412 347.454H323.523H324.07C329.976 347.454 335.345 345.084 339.329 341.217Z" fill="white" fill-opacity="0.4"/>
</svg>
