<svg width="34" height="36" viewBox="0 0 34 36" fill="none" xmlns="http://www.w3.org/2000/svg">
<rect x="0.840027" y="35.5" width="6.46" height="22.84" rx="3.23" transform="rotate(-90 0.840027 35.5)" fill="#E9E9E9"/>
<rect x="4.73999" y="20.34" width="2.48" height="15.16" fill="white"/>
<rect width="6.46" height="35" rx="3.23" transform="matrix(1 0 0 -1 0.76001 35.5)" fill="white"/>
<rect x="33.16" y="0.5" width="6.46" height="22.84" rx="3.23" transform="rotate(90 33.16 0.5)" fill="#E9E9E9"/>
<rect width="6.46" height="35" rx="3.23" transform="matrix(-1 0 0 1 33.24 0.5)" fill="white"/>
<rect width="2.41042" height="12.5605" rx="1.20521" transform="matrix(-0.913638 0.406528 -0.449488 -0.893287 20.9857 23.1201)" fill="white" fill-opacity="0.7"/>
<rect x="23.66" y="16.8481" width="2.30377" height="13.2" rx="1.15188" transform="rotate(90 23.66 16.8481)" fill="#E5E5E5"/>
<rect width="2.41042" height="12.5605" rx="1.20521" transform="matrix(0.913638 0.406528 0.449488 -0.893287 13.1377 23.1201)" fill="white"/>
</svg>
