<svg width="26" height="25" viewBox="0 0 26 25" fill="none" xmlns="http://www.w3.org/2000/svg">
<path fill-rule="evenodd" clip-rule="evenodd" d="M17.2388 19.4478C15.4873 20.695 13.3447 21.4286 11.0307 21.4286C5.11336 21.4286 0.316406 16.6316 0.316406 10.7143C0.316406 4.79695 5.11336 0 11.0307 0C16.948 0 21.745 4.79695 21.745 10.7143C21.745 13.0283 21.0114 15.1709 19.7642 16.9224L24.7934 21.9516C25.4907 22.649 25.4907 23.7796 24.7934 24.477C24.096 25.1743 22.9654 25.1743 22.268 24.477L17.2388 19.4478ZM18.1735 10.7143C18.1735 14.6592 14.9756 17.8571 11.0307 17.8571C7.0858 17.8571 3.88783 14.6592 3.88783 10.7143C3.88783 6.76939 7.0858 3.57143 11.0307 3.57143C14.9756 3.57143 18.1735 6.76939 18.1735 10.7143Z" fill="#4F4F4F"/>
</svg>
