<svg width="2508" height="2508" viewBox="0 0 2508 2508" fill="none" xmlns="http://www.w3.org/2000/svg">
<g filter="url(#filter0_d)">
<rect x="4" width="2500" height="2500" rx="500" fill="black"/>
<rect x="4.5" y="0.5" width="2499" height="2499" rx="499.5" stroke="black"/>
</g>
<rect x="446" y="2125" width="323" height="1142" rx="161.5" transform="rotate(-90 446 2125)" fill="#E9E9E9"/>
<rect x="641" y="1367" width="124" height="758" fill="white"/>
<rect width="323" height="1750" rx="161.5" transform="matrix(1 0 0 -1 442 2125)" fill="white"/>
<rect x="2062" y="375" width="323" height="1142" rx="161.5" transform="rotate(90 2062 375)" fill="#E9E9E9"/>
<rect width="323" height="1750" rx="161.5" transform="matrix(-1 0 0 1 2066 375)" fill="white"/>
<rect width="120.521" height="628.023" rx="60.2604" transform="matrix(-0.913638 0.406528 -0.449488 -0.893287 1453.29 1506)" fill="white" fill-opacity="0.7"/>
<rect x="1587" y="1192.4" width="115.188" height="660" rx="57.5941" transform="rotate(90 1587 1192.4)" fill="#E5E5E5"/>
<rect width="120.521" height="628.023" rx="60.2604" transform="matrix(0.913638 0.406528 0.449488 -0.893287 1060.89 1506)" fill="white"/>
<defs>
<filter id="filter0_d" x="0" y="0" width="2508" height="2508" filterUnits="userSpaceOnUse" color-interpolation-filters="sRGB">
<feFlood flood-opacity="0" result="BackgroundImageFix"/>
<feColorMatrix in="SourceAlpha" type="matrix" values="0 0 0 0 0 0 0 0 0 0 0 0 0 0 0 0 0 0 127 0"/>
<feOffset dy="4"/>
<feGaussianBlur stdDeviation="2"/>
<feColorMatrix type="matrix" values="0 0 0 0 0 0 0 0 0 0 0 0 0 0 0 0 0 0 0.25 0"/>
<feBlend mode="normal" in2="BackgroundImageFix" result="effect1_dropShadow"/>
<feBlend mode="normal" in="SourceGraphic" in2="effect1_dropShadow" result="shape"/>
</filter>
</defs>
</svg>
